<?xml version="1.0" encoding="UTF-8" standalone="no"?>
<!DOCTYPE svg PUBLIC "-//W3C//DTD SVG 1.1//EN"
 "http://www.w3.org/Graphics/SVG/1.1/DTD/svg11.dtd">
<!-- Generated by graphviz version 2.47.0 (20210316.0004)
 -->
<!-- Title: dependencies Pages: 1 -->
<svg width="534pt" height="284pt"
 viewBox="0.00 0.00 534.00 284.00" xmlns="http://www.w3.org/2000/svg" xmlns:xlink="http://www.w3.org/1999/xlink">
<g id="graph0" class="graph" transform="scale(1 1) rotate(0) translate(4 280)">
<title>dependencies</title>
<polygon fill="white" stroke="transparent" points="-4,4 -4,-280 530,-280 530,4 -4,4"/>
<text text-anchor="start" x="242.01" y="-42.4" font-family="Times-12" font-weight="bold" font-size="14.00">Legend</text>
<polygon fill="#ffffb3" stroke="transparent" points="29,-10 29,-30 49,-30 49,-10 29,-10"/>
<text text-anchor="start" x="52.63" y="-15.4" font-family="Times-12" font-size="14.00"> &#160;Declarations</text>
<polygon fill="#8dd3c7" stroke="transparent" points="142,-10 142,-30 162,-30 162,-10 142,-10"/>
<text text-anchor="start" x="165.73" y="-15.4" font-family="Times-12" font-size="14.00"> &#160;Module</text>
<polygon fill="#80b1d3" stroke="transparent" points="228,-10 228,-30 248,-30 248,-10 228,-10"/>
<text text-anchor="start" x="251.78" y="-15.4" font-family="Times-12" font-size="14.00"> &#160;Bootstrap</text>
<polygon fill="#fdb462" stroke="transparent" points="325,-10 325,-30 345,-30 345,-10 325,-10"/>
<text text-anchor="start" x="348.67" y="-15.4" font-family="Times-12" font-size="14.00"> &#160;Providers</text>
<polygon fill="#fb8072" stroke="transparent" points="421,-10 421,-30 441,-30 441,-10 421,-10"/>
<text text-anchor="start" x="444.73" y="-15.4" font-family="Times-12" font-size="14.00"> &#160;Exports</text>
<g id="clust1" class="cluster">
<title>cluster_HelperModule</title>
<polygon fill="none" stroke="black" stroke-dasharray="1,5" points="8,-70 8,-268 518,-268 518,-70 8,-70"/>
</g>
<g id="clust4" class="cluster">
<title>cluster_HelperModule_exports</title>
<polygon fill="none" stroke="black" points="16,-208 16,-260 510,-260 510,-208 16,-208"/>
</g>
<g id="clust6" class="cluster">
<title>cluster_HelperModule_providers</title>
<polygon fill="none" stroke="black" points="120,-78 120,-130 450,-130 450,-78 120,-78"/>
</g>
<!-- CommonQuery5  -->
<g id="node1" class="node">
<title>CommonQuery5 </title>
<polygon fill="#fb8072" stroke="black" points="501.6,-252 388.4,-252 388.4,-216 501.6,-216 501.6,-252"/>
<text text-anchor="middle" x="445" y="-229.8" font-family="Times,serif" font-size="14.00">CommonQuery5 </text>
</g>
<!-- PaginationService  -->
<g id="node2" class="node">
<title>PaginationService </title>
<polygon fill="#fb8072" stroke="black" points="370.86,-252 249.14,-252 249.14,-216 370.86,-216 370.86,-252"/>
<text text-anchor="middle" x="310" y="-229.8" font-family="Times,serif" font-size="14.00">PaginationService </text>
</g>
<!-- PrismaService  -->
<g id="node3" class="node">
<title>PrismaService </title>
<polygon fill="#fb8072" stroke="black" points="231.36,-252 130.64,-252 130.64,-216 231.36,-216 231.36,-252"/>
<text text-anchor="middle" x="181" y="-229.8" font-family="Times,serif" font-size="14.00">PrismaService </text>
</g>
<!-- UtilsService  -->
<g id="node4" class="node">
<title>UtilsService </title>
<polygon fill="#fb8072" stroke="black" points="112.2,-252 23.8,-252 23.8,-216 112.2,-216 112.2,-252"/>
<text text-anchor="middle" x="68" y="-229.8" font-family="Times,serif" font-size="14.00">UtilsService </text>
</g>
<!-- HelperModule -->
<g id="node5" class="node">
<title>HelperModule</title>
<polygon fill="#8dd3c7" stroke="black" points="288.64,-187 285.64,-191 264.64,-191 261.64,-187 191.36,-187 191.36,-151 288.64,-151 288.64,-187"/>
<text text-anchor="middle" x="240" y="-164.8" font-family="Times,serif" font-size="14.00">HelperModule</text>
</g>
<!-- HelperModule&#45;&gt;CommonQuery5  -->
<g id="edge1" class="edge">
<title>HelperModule&#45;&gt;CommonQuery5 </title>
<path fill="none" stroke="black" stroke-dasharray="5,2" d="M288.82,-169C340.67,-169 415.25,-169 415.25,-169 415.25,-169 415.25,-205.89 415.25,-205.89"/>
<polygon fill="black" stroke="black" points="411.75,-205.89 415.25,-215.89 418.75,-205.89 411.75,-205.89"/>
</g>
<!-- HelperModule&#45;&gt;PaginationService  -->
<g id="edge2" class="edge">
<title>HelperModule&#45;&gt;PaginationService </title>
<path fill="none" stroke="black" stroke-dasharray="5,2" d="M269.07,-187.11C269.07,-187.11 269.07,-205.99 269.07,-205.99"/>
<polygon fill="black" stroke="black" points="265.57,-205.99 269.07,-215.99 272.57,-205.99 265.57,-205.99"/>
</g>
<!-- HelperModule&#45;&gt;PrismaService  -->
<g id="edge3" class="edge">
<title>HelperModule&#45;&gt;PrismaService </title>
<path fill="none" stroke="black" stroke-dasharray="5,2" d="M211.18,-187.11C211.18,-187.11 211.18,-205.99 211.18,-205.99"/>
<polygon fill="black" stroke="black" points="207.68,-205.99 211.18,-215.99 214.68,-205.99 207.68,-205.99"/>
</g>
<!-- HelperModule&#45;&gt;UtilsService  -->
<g id="edge4" class="edge">
<title>HelperModule&#45;&gt;UtilsService </title>
<path fill="none" stroke="black" stroke-dasharray="5,2" d="M191.17,-169C140.32,-169 68,-169 68,-169 68,-169 68,-205.89 68,-205.89"/>
<polygon fill="black" stroke="black" points="64.5,-205.89 68,-215.89 71.5,-205.89 64.5,-205.89"/>
</g>
<!-- PaginationService -->
<g id="node6" class="node">
<title>PaginationService</title>
<ellipse fill="#fdb462" stroke="black" cx="361" cy="-104" rx="81.1" ry="18"/>
<text text-anchor="middle" x="361" y="-99.8" font-family="Times,serif" font-size="14.00">PaginationService</text>
</g>
<!-- PaginationService&#45;&gt;HelperModule -->
<g id="edge5" class="edge">
<title>PaginationService&#45;&gt;HelperModule</title>
<path fill="none" stroke="black" d="M284.26,-110C284.26,-110 284.26,-140.76 284.26,-140.76"/>
<polygon fill="black" stroke="black" points="280.76,-140.76 284.26,-150.76 287.76,-140.76 280.76,-140.76"/>
</g>
<!-- PrismaService -->
<g id="node7" class="node">
<title>PrismaService</title>
<ellipse fill="#fdb462" stroke="black" cx="195" cy="-104" rx="66.63" ry="18"/>
<text text-anchor="middle" x="195" y="-99.8" font-family="Times,serif" font-size="14.00">PrismaService</text>
</g>
<!-- PrismaService&#45;&gt;HelperModule -->
<g id="edge6" class="edge">
<title>PrismaService&#45;&gt;HelperModule</title>
<path fill="none" stroke="black" d="M226.5,-120.07C226.5,-120.07 226.5,-140.82 226.5,-140.82"/>
<polygon fill="black" stroke="black" points="223,-140.82 226.5,-150.82 230,-140.82 223,-140.82"/>
</g>
</g>
</svg>
