<?xml version="1.0" encoding="UTF-8" standalone="no"?>
<!DOCTYPE svg PUBLIC "-//W3C//DTD SVG 1.1//EN"
 "http://www.w3.org/Graphics/SVG/1.1/DTD/svg11.dtd">
<!-- Generated by graphviz version 2.47.0 (20210316.0004)
 -->
<!-- Title: dependencies Pages: 1 -->
<svg width="504pt" height="284pt"
 viewBox="0.00 0.00 504.00 284.00" xmlns="http://www.w3.org/2000/svg" xmlns:xlink="http://www.w3.org/1999/xlink">
<g id="graph0" class="graph" transform="scale(1 1) rotate(0) translate(4 280)">
<title>dependencies</title>
<polygon fill="white" stroke="transparent" points="-4,4 -4,-280 500,-280 500,4 -4,4"/>
<text text-anchor="start" x="227.01" y="-42.4" font-family="Times-12" font-weight="bold" font-size="14.00">Legend</text>
<polygon fill="#ffffb3" stroke="transparent" points="14,-10 14,-30 34,-30 34,-10 14,-10"/>
<text text-anchor="start" x="37.63" y="-15.4" font-family="Times-12" font-size="14.00"> &#160;Declarations</text>
<polygon fill="#8dd3c7" stroke="transparent" points="127,-10 127,-30 147,-30 147,-10 127,-10"/>
<text text-anchor="start" x="150.73" y="-15.4" font-family="Times-12" font-size="14.00"> &#160;Module</text>
<polygon fill="#80b1d3" stroke="transparent" points="213,-10 213,-30 233,-30 233,-10 213,-10"/>
<text text-anchor="start" x="236.78" y="-15.4" font-family="Times-12" font-size="14.00"> &#160;Bootstrap</text>
<polygon fill="#fdb462" stroke="transparent" points="310,-10 310,-30 330,-30 330,-10 310,-10"/>
<text text-anchor="start" x="333.67" y="-15.4" font-family="Times-12" font-size="14.00"> &#160;Providers</text>
<polygon fill="#fb8072" stroke="transparent" points="406,-10 406,-30 426,-30 426,-10 406,-10"/>
<text text-anchor="start" x="429.73" y="-15.4" font-family="Times-12" font-size="14.00"> &#160;Exports</text>
<g id="clust1" class="cluster">
<title>cluster_HelperModule</title>
<polygon fill="none" stroke="black" stroke-dasharray="1,5" points="58.5,-70 58.5,-268 437.5,-268 437.5,-70 58.5,-70"/>
</g>
<g id="clust4" class="cluster">
<title>cluster_HelperModule_exports</title>
<polygon fill="none" stroke="black" points="66.5,-208 66.5,-260 429.5,-260 429.5,-208 66.5,-208"/>
</g>
<g id="clust6" class="cluster">
<title>cluster_HelperModule_providers</title>
<polygon fill="none" stroke="black" points="83.5,-78 83.5,-130 413.5,-130 413.5,-78 83.5,-78"/>
</g>
<!-- PaginationService  -->
<g id="node1" class="node">
<title>PaginationService </title>
<polygon fill="#fb8072" stroke="black" points="421.36,-252 299.64,-252 299.64,-216 421.36,-216 421.36,-252"/>
<text text-anchor="middle" x="360.5" y="-229.8" font-family="Times,serif" font-size="14.00">PaginationService </text>
</g>
<!-- PrismaService  -->
<g id="node2" class="node">
<title>PrismaService </title>
<polygon fill="#fb8072" stroke="black" points="281.86,-252 181.14,-252 181.14,-216 281.86,-216 281.86,-252"/>
<text text-anchor="middle" x="231.5" y="-229.8" font-family="Times,serif" font-size="14.00">PrismaService </text>
</g>
<!-- UtilsService  -->
<g id="node3" class="node">
<title>UtilsService </title>
<polygon fill="#fb8072" stroke="black" points="162.7,-252 74.3,-252 74.3,-216 162.7,-216 162.7,-252"/>
<text text-anchor="middle" x="118.5" y="-229.8" font-family="Times,serif" font-size="14.00">UtilsService </text>
</g>
<!-- HelperModule -->
<g id="node4" class="node">
<title>HelperModule</title>
<polygon fill="#8dd3c7" stroke="black" points="280.14,-187 277.14,-191 256.14,-191 253.14,-187 182.86,-187 182.86,-151 280.14,-151 280.14,-187"/>
<text text-anchor="middle" x="231.5" y="-164.8" font-family="Times,serif" font-size="14.00">HelperModule</text>
</g>
<!-- HelperModule&#45;&gt;PaginationService  -->
<g id="edge1" class="edge">
<title>HelperModule&#45;&gt;PaginationService </title>
<path fill="none" stroke="black" stroke-dasharray="5,2" d="M280.14,-169C313.89,-169 352.81,-169 352.81,-169 352.81,-169 352.81,-205.89 352.81,-205.89"/>
<polygon fill="black" stroke="black" points="349.31,-205.89 352.81,-215.89 356.31,-205.89 349.31,-205.89"/>
</g>
<!-- HelperModule&#45;&gt;PrismaService  -->
<g id="edge2" class="edge">
<title>HelperModule&#45;&gt;PrismaService </title>
<path fill="none" stroke="black" stroke-dasharray="5,2" d="M231.5,-187.11C231.5,-187.11 231.5,-205.99 231.5,-205.99"/>
<polygon fill="black" stroke="black" points="228,-205.99 231.5,-215.99 235,-205.99 228,-205.99"/>
</g>
<!-- HelperModule&#45;&gt;UtilsService  -->
<g id="edge3" class="edge">
<title>HelperModule&#45;&gt;UtilsService </title>
<path fill="none" stroke="black" stroke-dasharray="5,2" d="M182.74,-169C155.61,-169 127.27,-169 127.27,-169 127.27,-169 127.27,-205.89 127.27,-205.89"/>
<polygon fill="black" stroke="black" points="123.77,-205.89 127.27,-215.89 130.77,-205.89 123.77,-205.89"/>
</g>
<!-- PaginationService -->
<g id="node5" class="node">
<title>PaginationService</title>
<ellipse fill="#fdb462" stroke="black" cx="324.5" cy="-104" rx="81.1" ry="18"/>
<text text-anchor="middle" x="324.5" y="-99.8" font-family="Times,serif" font-size="14.00">PaginationService</text>
</g>
<!-- PaginationService&#45;&gt;HelperModule -->
<g id="edge4" class="edge">
<title>PaginationService&#45;&gt;HelperModule</title>
<path fill="none" stroke="black" d="M261.76,-115.62C261.76,-115.62 261.76,-140.85 261.76,-140.85"/>
<polygon fill="black" stroke="black" points="258.26,-140.85 261.76,-150.85 265.26,-140.85 258.26,-140.85"/>
</g>
<!-- PrismaService -->
<g id="node6" class="node">
<title>PrismaService</title>
<ellipse fill="#fdb462" stroke="black" cx="158.5" cy="-104" rx="66.63" ry="18"/>
<text text-anchor="middle" x="158.5" y="-99.8" font-family="Times,serif" font-size="14.00">PrismaService</text>
</g>
<!-- PrismaService&#45;&gt;HelperModule -->
<g id="edge5" class="edge">
<title>PrismaService&#45;&gt;HelperModule</title>
<path fill="none" stroke="black" d="M204,-117.47C204,-117.47 204,-140.86 204,-140.86"/>
<polygon fill="black" stroke="black" points="200.5,-140.86 204,-150.86 207.5,-140.86 200.5,-140.86"/>
</g>
</g>
</svg>
