<?xml version="1.0" encoding="UTF-8" standalone="no"?>
<!DOCTYPE svg PUBLIC "-//W3C//DTD SVG 1.1//EN"
 "http://www.w3.org/Graphics/SVG/1.1/DTD/svg11.dtd">
<!-- Generated by graphviz version 2.47.0 (20210316.0004)
 -->
<!-- Title: dependencies Pages: 1 -->
<svg width="1568pt" height="211pt"
 viewBox="0.00 0.00 1568.00 211.00" xmlns="http://www.w3.org/2000/svg" xmlns:xlink="http://www.w3.org/1999/xlink">
<g id="graph0" class="graph" transform="scale(1 1) rotate(0) translate(4 207)">
<title>dependencies</title>
<polygon fill="white" stroke="transparent" points="-4,4 -4,-207 1564,-207 1564,4 -4,4"/>
<text text-anchor="start" x="759.01" y="-42.4" font-family="Times-12" font-weight="bold" font-size="14.00">Legend</text>
<polygon fill="#ffffb3" stroke="transparent" points="546,-10 546,-30 566,-30 566,-10 546,-10"/>
<text text-anchor="start" x="569.63" y="-15.4" font-family="Times-12" font-size="14.00"> &#160;Declarations</text>
<polygon fill="#8dd3c7" stroke="transparent" points="659,-10 659,-30 679,-30 679,-10 659,-10"/>
<text text-anchor="start" x="682.73" y="-15.4" font-family="Times-12" font-size="14.00"> &#160;Module</text>
<polygon fill="#80b1d3" stroke="transparent" points="745,-10 745,-30 765,-30 765,-10 745,-10"/>
<text text-anchor="start" x="768.78" y="-15.4" font-family="Times-12" font-size="14.00"> &#160;Bootstrap</text>
<polygon fill="#fdb462" stroke="transparent" points="842,-10 842,-30 862,-30 862,-10 842,-10"/>
<text text-anchor="start" x="865.67" y="-15.4" font-family="Times-12" font-size="14.00"> &#160;Providers</text>
<polygon fill="#fb8072" stroke="transparent" points="938,-10 938,-30 958,-30 958,-10 938,-10"/>
<text text-anchor="start" x="961.73" y="-15.4" font-family="Times-12" font-size="14.00"> &#160;Exports</text>
<g id="clust1" class="cluster">
<title>cluster_ApiModule</title>
<polygon fill="none" stroke="black" stroke-dasharray="1,5" points="8,-70 8,-195 1552,-195 1552,-70 8,-70"/>
</g>
<g id="clust3" class="cluster">
<title>cluster_ApiModule_imports</title>
<polygon fill="none" stroke="black" points="16,-78 16,-130 1544,-130 1544,-78 16,-78"/>
</g>
<!-- AddressTypeModule -->
<g id="node1" class="node">
<title>AddressTypeModule</title>
<polygon fill="#8dd3c7" stroke="black" points="1536.19,-122 1533.19,-126 1512.19,-126 1509.19,-122 1401.81,-122 1401.81,-86 1536.19,-86 1536.19,-122"/>
<text text-anchor="middle" x="1469" y="-99.8" font-family="Times,serif" font-size="14.00">AddressTypeModule</text>
</g>
<!-- ApiModule -->
<g id="node13" class="node">
<title>ApiModule</title>
<polygon fill="#8dd3c7" stroke="black" points="825.05,-187 822.05,-191 801.05,-191 798.05,-187 744.95,-187 744.95,-151 825.05,-151 825.05,-187"/>
<text text-anchor="middle" x="785" y="-164.8" font-family="Times,serif" font-size="14.00">ApiModule</text>
</g>
<!-- AddressTypeModule&#45;&gt;ApiModule -->
<g id="edge1" class="edge">
<title>AddressTypeModule&#45;&gt;ApiModule</title>
<path fill="none" stroke="black" d="M1469,-122.09C1469,-145.13 1469,-182 1469,-182 1469,-182 835.23,-182 835.23,-182"/>
<polygon fill="black" stroke="black" points="835.23,-178.5 825.23,-182 835.23,-185.5 835.23,-178.5"/>
</g>
<!-- BankModule -->
<g id="node2" class="node">
<title>BankModule</title>
<polygon fill="#8dd3c7" stroke="black" points="1383.6,-122 1380.6,-126 1359.6,-126 1356.6,-122 1294.4,-122 1294.4,-86 1383.6,-86 1383.6,-122"/>
<text text-anchor="middle" x="1339" y="-99.8" font-family="Times,serif" font-size="14.00">BankModule</text>
</g>
<!-- BankModule&#45;&gt;ApiModule -->
<g id="edge2" class="edge">
<title>BankModule&#45;&gt;ApiModule</title>
<path fill="none" stroke="black" d="M1339,-122.28C1339,-143.32 1339,-175 1339,-175 1339,-175 835.29,-175 835.29,-175"/>
<polygon fill="black" stroke="black" points="835.29,-171.5 825.29,-175 835.29,-178.5 835.29,-171.5"/>
</g>
<!-- CityModule -->
<g id="node3" class="node">
<title>CityModule</title>
<polygon fill="#8dd3c7" stroke="black" points="1276.67,-122 1273.67,-126 1252.67,-126 1249.67,-122 1193.33,-122 1193.33,-86 1276.67,-86 1276.67,-122"/>
<text text-anchor="middle" x="1235" y="-99.8" font-family="Times,serif" font-size="14.00">CityModule</text>
</g>
<!-- CityModule&#45;&gt;ApiModule -->
<g id="edge3" class="edge">
<title>CityModule&#45;&gt;ApiModule</title>
<path fill="none" stroke="black" d="M1235,-122.11C1235,-141.34 1235,-169 1235,-169 1235,-169 835.33,-169 835.33,-169"/>
<polygon fill="black" stroke="black" points="835.33,-165.5 825.33,-169 835.33,-172.5 835.33,-165.5"/>
</g>
<!-- ContactModule -->
<g id="node4" class="node">
<title>ContactModule</title>
<polygon fill="#8dd3c7" stroke="black" points="1175.6,-122 1172.6,-126 1151.6,-126 1148.6,-122 1072.4,-122 1072.4,-86 1175.6,-86 1175.6,-122"/>
<text text-anchor="middle" x="1124" y="-99.8" font-family="Times,serif" font-size="14.00">ContactModule</text>
</g>
<!-- ContactModule&#45;&gt;ApiModule -->
<g id="edge4" class="edge">
<title>ContactModule&#45;&gt;ApiModule</title>
<path fill="none" stroke="black" d="M1124,-122.02C1124,-139.37 1124,-163 1124,-163 1124,-163 835.22,-163 835.22,-163"/>
<polygon fill="black" stroke="black" points="835.22,-159.5 825.22,-163 835.22,-166.5 835.22,-159.5"/>
</g>
<!-- CountriesModule -->
<g id="node5" class="node">
<title>CountriesModule</title>
<polygon fill="#8dd3c7" stroke="black" points="1053.99,-122 1050.99,-126 1029.99,-126 1026.99,-122 940.01,-122 940.01,-86 1053.99,-86 1053.99,-122"/>
<text text-anchor="middle" x="997" y="-99.8" font-family="Times,serif" font-size="14.00">CountriesModule</text>
</g>
<!-- CountriesModule&#45;&gt;ApiModule -->
<g id="edge5" class="edge">
<title>CountriesModule&#45;&gt;ApiModule</title>
<path fill="none" stroke="black" d="M997,-122.24C997,-137.57 997,-157 997,-157 997,-157 835.37,-157 835.37,-157"/>
<polygon fill="black" stroke="black" points="835.37,-153.5 825.37,-157 835.37,-160.5 835.37,-153.5"/>
</g>
<!-- CountryMasModule -->
<g id="node6" class="node">
<title>CountryMasModule</title>
<polygon fill="#8dd3c7" stroke="black" points="921.54,-122 918.54,-126 897.54,-126 894.54,-122 792.46,-122 792.46,-86 921.54,-86 921.54,-122"/>
<text text-anchor="middle" x="857" y="-99.8" font-family="Times,serif" font-size="14.00">CountryMasModule</text>
</g>
<!-- CountryMasModule&#45;&gt;ApiModule -->
<g id="edge6" class="edge">
<title>CountryMasModule&#45;&gt;ApiModule</title>
<path fill="none" stroke="black" d="M808.75,-122.11C808.75,-122.11 808.75,-140.99 808.75,-140.99"/>
<polygon fill="black" stroke="black" points="805.25,-140.99 808.75,-150.99 812.25,-140.99 805.25,-140.99"/>
</g>
<!-- CurrenciesModule -->
<g id="node7" class="node">
<title>CurrenciesModule</title>
<polygon fill="#8dd3c7" stroke="black" points="774.19,-122 771.19,-126 750.19,-126 747.19,-122 653.81,-122 653.81,-86 774.19,-86 774.19,-122"/>
<text text-anchor="middle" x="714" y="-99.8" font-family="Times,serif" font-size="14.00">CurrenciesModule</text>
</g>
<!-- CurrenciesModule&#45;&gt;ApiModule -->
<g id="edge7" class="edge">
<title>CurrenciesModule&#45;&gt;ApiModule</title>
<path fill="none" stroke="black" d="M759.41,-122.11C759.41,-122.11 759.41,-140.99 759.41,-140.99"/>
<polygon fill="black" stroke="black" points="755.91,-140.99 759.41,-150.99 762.91,-140.99 755.91,-140.99"/>
</g>
<!-- DocumentGroupModule -->
<g id="node8" class="node">
<title>DocumentGroupModule</title>
<polygon fill="#8dd3c7" stroke="black" points="635.63,-122 632.63,-126 611.63,-126 608.63,-122 482.37,-122 482.37,-86 635.63,-86 635.63,-122"/>
<text text-anchor="middle" x="559" y="-99.8" font-family="Times,serif" font-size="14.00">DocumentGroupModule</text>
</g>
<!-- DocumentGroupModule&#45;&gt;ApiModule -->
<g id="edge8" class="edge">
<title>DocumentGroupModule&#45;&gt;ApiModule</title>
<path fill="none" stroke="black" d="M559,-122.24C559,-137.57 559,-157 559,-157 559,-157 734.86,-157 734.86,-157"/>
<polygon fill="black" stroke="black" points="734.86,-160.5 744.86,-157 734.86,-153.5 734.86,-160.5"/>
</g>
<!-- DocumentModule -->
<g id="node9" class="node">
<title>DocumentModule</title>
<polygon fill="#8dd3c7" stroke="black" points="463.87,-122 460.87,-126 439.87,-126 436.87,-122 346.13,-122 346.13,-86 463.87,-86 463.87,-122"/>
<text text-anchor="middle" x="405" y="-99.8" font-family="Times,serif" font-size="14.00">DocumentModule</text>
</g>
<!-- DocumentModule&#45;&gt;ApiModule -->
<g id="edge9" class="edge">
<title>DocumentModule&#45;&gt;ApiModule</title>
<path fill="none" stroke="black" d="M405,-122.02C405,-139.37 405,-163 405,-163 405,-163 734.69,-163 734.69,-163"/>
<polygon fill="black" stroke="black" points="734.69,-166.5 744.69,-163 734.69,-159.5 734.69,-166.5"/>
</g>
<!-- FilesModule -->
<g id="node10" class="node">
<title>FilesModule</title>
<polygon fill="#8dd3c7" stroke="black" points="328.27,-122 325.27,-126 304.27,-126 301.27,-122 241.73,-122 241.73,-86 328.27,-86 328.27,-122"/>
<text text-anchor="middle" x="285" y="-99.8" font-family="Times,serif" font-size="14.00">FilesModule</text>
</g>
<!-- FilesModule&#45;&gt;ApiModule -->
<g id="edge10" class="edge">
<title>FilesModule&#45;&gt;ApiModule</title>
<path fill="none" stroke="black" d="M285,-122.11C285,-141.34 285,-169 285,-169 285,-169 734.93,-169 734.93,-169"/>
<polygon fill="black" stroke="black" points="734.93,-172.5 744.93,-169 734.93,-165.5 734.93,-172.5"/>
</g>
<!-- HomeModule -->
<g id="node11" class="node">
<title>HomeModule</title>
<polygon fill="#8dd3c7" stroke="black" points="223.76,-122 220.76,-126 199.76,-126 196.76,-122 130.24,-122 130.24,-86 223.76,-86 223.76,-122"/>
<text text-anchor="middle" x="177" y="-99.8" font-family="Times,serif" font-size="14.00">HomeModule</text>
</g>
<!-- HomeModule&#45;&gt;ApiModule -->
<g id="edge11" class="edge">
<title>HomeModule&#45;&gt;ApiModule</title>
<path fill="none" stroke="black" d="M177,-122.28C177,-143.32 177,-175 177,-175 177,-175 734.64,-175 734.64,-175"/>
<polygon fill="black" stroke="black" points="734.64,-178.5 744.64,-175 734.64,-171.5 734.64,-178.5"/>
</g>
<!-- StateModule -->
<g id="node12" class="node">
<title>StateModule</title>
<polygon fill="#8dd3c7" stroke="black" points="111.54,-122 108.54,-126 87.54,-126 84.54,-122 24.46,-122 24.46,-86 111.54,-86 111.54,-122"/>
<text text-anchor="middle" x="68" y="-99.8" font-family="Times,serif" font-size="14.00">StateModule</text>
</g>
<!-- StateModule&#45;&gt;ApiModule -->
<g id="edge12" class="edge">
<title>StateModule&#45;&gt;ApiModule</title>
<path fill="none" stroke="black" d="M68,-122.09C68,-145.13 68,-182 68,-182 68,-182 734.91,-182 734.91,-182"/>
<polygon fill="black" stroke="black" points="734.91,-185.5 744.91,-182 734.91,-178.5 734.91,-185.5"/>
</g>
</g>
</svg>
