<?xml version="1.0" encoding="UTF-8" standalone="no"?>
<!DOCTYPE svg PUBLIC "-//W3C//DTD SVG 1.1//EN"
 "http://www.w3.org/Graphics/SVG/1.1/DTD/svg11.dtd">
<!-- Generated by graphviz version 2.47.0 (20210316.0004)
 -->
<!-- Title: dependencies Pages: 1 -->
<svg width="1295pt" height="211pt"
 viewBox="0.00 0.00 1295.00 211.00" xmlns="http://www.w3.org/2000/svg" xmlns:xlink="http://www.w3.org/1999/xlink">
<g id="graph0" class="graph" transform="scale(1 1) rotate(0) translate(4 207)">
<title>dependencies</title>
<polygon fill="white" stroke="transparent" points="-4,4 -4,-207 1291,-207 1291,4 -4,4"/>
<text text-anchor="start" x="622.51" y="-42.4" font-family="Times-12" font-weight="bold" font-size="14.00">Legend</text>
<polygon fill="#ffffb3" stroke="transparent" points="409.5,-10 409.5,-30 429.5,-30 429.5,-10 409.5,-10"/>
<text text-anchor="start" x="433.13" y="-15.4" font-family="Times-12" font-size="14.00"> &#160;Declarations</text>
<polygon fill="#8dd3c7" stroke="transparent" points="522.5,-10 522.5,-30 542.5,-30 542.5,-10 522.5,-10"/>
<text text-anchor="start" x="546.23" y="-15.4" font-family="Times-12" font-size="14.00"> &#160;Module</text>
<polygon fill="#80b1d3" stroke="transparent" points="608.5,-10 608.5,-30 628.5,-30 628.5,-10 608.5,-10"/>
<text text-anchor="start" x="632.28" y="-15.4" font-family="Times-12" font-size="14.00"> &#160;Bootstrap</text>
<polygon fill="#fdb462" stroke="transparent" points="705.5,-10 705.5,-30 725.5,-30 725.5,-10 705.5,-10"/>
<text text-anchor="start" x="729.17" y="-15.4" font-family="Times-12" font-size="14.00"> &#160;Providers</text>
<polygon fill="#fb8072" stroke="transparent" points="801.5,-10 801.5,-30 821.5,-30 821.5,-10 801.5,-10"/>
<text text-anchor="start" x="825.23" y="-15.4" font-family="Times-12" font-size="14.00"> &#160;Exports</text>
<g id="clust1" class="cluster">
<title>cluster_ApiModule</title>
<polygon fill="none" stroke="black" stroke-dasharray="1,5" points="8,-70 8,-195 1279,-195 1279,-70 8,-70"/>
</g>
<g id="clust3" class="cluster">
<title>cluster_ApiModule_imports</title>
<polygon fill="none" stroke="black" points="16,-78 16,-130 1271,-130 1271,-78 16,-78"/>
</g>
<!-- BankModule -->
<g id="node1" class="node">
<title>BankModule</title>
<polygon fill="#8dd3c7" stroke="black" points="1262.6,-122 1259.6,-126 1238.6,-126 1235.6,-122 1173.4,-122 1173.4,-86 1262.6,-86 1262.6,-122"/>
<text text-anchor="middle" x="1218" y="-99.8" font-family="Times,serif" font-size="14.00">BankModule</text>
</g>
<!-- ApiModule -->
<g id="node11" class="node">
<title>ApiModule</title>
<polygon fill="#8dd3c7" stroke="black" points="676.05,-187 673.05,-191 652.05,-191 649.05,-187 595.95,-187 595.95,-151 676.05,-151 676.05,-187"/>
<text text-anchor="middle" x="636" y="-164.8" font-family="Times,serif" font-size="14.00">ApiModule</text>
</g>
<!-- BankModule&#45;&gt;ApiModule -->
<g id="edge1" class="edge">
<title>BankModule&#45;&gt;ApiModule</title>
<path fill="none" stroke="black" d="M1218,-122.01C1218,-144.49 1218,-180 1218,-180 1218,-180 686.46,-180 686.46,-180"/>
<polygon fill="black" stroke="black" points="686.46,-176.5 676.46,-180 686.46,-183.5 686.46,-176.5"/>
</g>
<!-- CityModule -->
<g id="node2" class="node">
<title>CityModule</title>
<polygon fill="#8dd3c7" stroke="black" points="1155.67,-122 1152.67,-126 1131.67,-126 1128.67,-122 1072.33,-122 1072.33,-86 1155.67,-86 1155.67,-122"/>
<text text-anchor="middle" x="1114" y="-99.8" font-family="Times,serif" font-size="14.00">CityModule</text>
</g>
<!-- CityModule&#45;&gt;ApiModule -->
<g id="edge2" class="edge">
<title>CityModule&#45;&gt;ApiModule</title>
<path fill="none" stroke="black" d="M1114,-122.13C1114,-142.57 1114,-173 1114,-173 1114,-173 686.34,-173 686.34,-173"/>
<polygon fill="black" stroke="black" points="686.34,-169.5 676.34,-173 686.34,-176.5 686.34,-169.5"/>
</g>
<!-- CountriesModule -->
<g id="node3" class="node">
<title>CountriesModule</title>
<polygon fill="#8dd3c7" stroke="black" points="1053.99,-122 1050.99,-126 1029.99,-126 1026.99,-122 940.01,-122 940.01,-86 1053.99,-86 1053.99,-122"/>
<text text-anchor="middle" x="997" y="-99.8" font-family="Times,serif" font-size="14.00">CountriesModule</text>
</g>
<!-- CountriesModule&#45;&gt;ApiModule -->
<g id="edge3" class="edge">
<title>CountriesModule&#45;&gt;ApiModule</title>
<path fill="none" stroke="black" d="M997,-122.27C997,-140.56 997,-166 997,-166 997,-166 686.36,-166 686.36,-166"/>
<polygon fill="black" stroke="black" points="686.36,-162.5 676.36,-166 686.36,-169.5 686.36,-162.5"/>
</g>
<!-- CountryMasModule -->
<g id="node4" class="node">
<title>CountryMasModule</title>
<polygon fill="#8dd3c7" stroke="black" points="921.54,-122 918.54,-126 897.54,-126 894.54,-122 792.46,-122 792.46,-86 921.54,-86 921.54,-122"/>
<text text-anchor="middle" x="857" y="-99.8" font-family="Times,serif" font-size="14.00">CountryMasModule</text>
</g>
<!-- CountryMasModule&#45;&gt;ApiModule -->
<g id="edge4" class="edge">
<title>CountryMasModule&#45;&gt;ApiModule</title>
<path fill="none" stroke="black" d="M857,-122.01C857,-138.05 857,-159 857,-159 857,-159 686.28,-159 686.28,-159"/>
<polygon fill="black" stroke="black" points="686.28,-155.5 676.28,-159 686.28,-162.5 686.28,-155.5"/>
</g>
<!-- CurrenciesModule -->
<g id="node5" class="node">
<title>CurrenciesModule</title>
<polygon fill="#8dd3c7" stroke="black" points="774.19,-122 771.19,-126 750.19,-126 747.19,-122 653.81,-122 653.81,-86 774.19,-86 774.19,-122"/>
<text text-anchor="middle" x="714" y="-99.8" font-family="Times,serif" font-size="14.00">CurrenciesModule</text>
</g>
<!-- CurrenciesModule&#45;&gt;ApiModule -->
<g id="edge5" class="edge">
<title>CurrenciesModule&#45;&gt;ApiModule</title>
<path fill="none" stroke="black" d="M665.09,-122.11C665.09,-122.11 665.09,-140.99 665.09,-140.99"/>
<polygon fill="black" stroke="black" points="661.59,-140.99 665.09,-150.99 668.59,-140.99 661.59,-140.99"/>
</g>
<!-- DocumentGroupModule -->
<g id="node6" class="node">
<title>DocumentGroupModule</title>
<polygon fill="#8dd3c7" stroke="black" points="635.63,-122 632.63,-126 611.63,-126 608.63,-122 482.37,-122 482.37,-86 635.63,-86 635.63,-122"/>
<text text-anchor="middle" x="559" y="-99.8" font-family="Times,serif" font-size="14.00">DocumentGroupModule</text>
</g>
<!-- DocumentGroupModule&#45;&gt;ApiModule -->
<g id="edge6" class="edge">
<title>DocumentGroupModule&#45;&gt;ApiModule</title>
<path fill="none" stroke="black" d="M615.77,-122.11C615.77,-122.11 615.77,-140.99 615.77,-140.99"/>
<polygon fill="black" stroke="black" points="612.27,-140.99 615.77,-150.99 619.27,-140.99 612.27,-140.99"/>
</g>
<!-- DocumentModule -->
<g id="node7" class="node">
<title>DocumentModule</title>
<polygon fill="#8dd3c7" stroke="black" points="463.87,-122 460.87,-126 439.87,-126 436.87,-122 346.13,-122 346.13,-86 463.87,-86 463.87,-122"/>
<text text-anchor="middle" x="405" y="-99.8" font-family="Times,serif" font-size="14.00">DocumentModule</text>
</g>
<!-- DocumentModule&#45;&gt;ApiModule -->
<g id="edge7" class="edge">
<title>DocumentModule&#45;&gt;ApiModule</title>
<path fill="none" stroke="black" d="M405,-122.01C405,-138.05 405,-159 405,-159 405,-159 585.76,-159 585.76,-159"/>
<polygon fill="black" stroke="black" points="585.76,-162.5 595.76,-159 585.76,-155.5 585.76,-162.5"/>
</g>
<!-- FilesModule -->
<g id="node8" class="node">
<title>FilesModule</title>
<polygon fill="#8dd3c7" stroke="black" points="328.27,-122 325.27,-126 304.27,-126 301.27,-122 241.73,-122 241.73,-86 328.27,-86 328.27,-122"/>
<text text-anchor="middle" x="285" y="-99.8" font-family="Times,serif" font-size="14.00">FilesModule</text>
</g>
<!-- FilesModule&#45;&gt;ApiModule -->
<g id="edge8" class="edge">
<title>FilesModule&#45;&gt;ApiModule</title>
<path fill="none" stroke="black" d="M285,-122.27C285,-140.56 285,-166 285,-166 285,-166 585.74,-166 585.74,-166"/>
<polygon fill="black" stroke="black" points="585.74,-169.5 595.74,-166 585.74,-162.5 585.74,-169.5"/>
</g>
<!-- HomeModule -->
<g id="node9" class="node">
<title>HomeModule</title>
<polygon fill="#8dd3c7" stroke="black" points="223.76,-122 220.76,-126 199.76,-126 196.76,-122 130.24,-122 130.24,-86 223.76,-86 223.76,-122"/>
<text text-anchor="middle" x="177" y="-99.8" font-family="Times,serif" font-size="14.00">HomeModule</text>
</g>
<!-- HomeModule&#45;&gt;ApiModule -->
<g id="edge9" class="edge">
<title>HomeModule&#45;&gt;ApiModule</title>
<path fill="none" stroke="black" d="M177,-122.13C177,-142.57 177,-173 177,-173 177,-173 585.67,-173 585.67,-173"/>
<polygon fill="black" stroke="black" points="585.67,-176.5 595.67,-173 585.67,-169.5 585.67,-176.5"/>
</g>
<!-- StateModule -->
<g id="node10" class="node">
<title>StateModule</title>
<polygon fill="#8dd3c7" stroke="black" points="111.54,-122 108.54,-126 87.54,-126 84.54,-122 24.46,-122 24.46,-86 111.54,-86 111.54,-122"/>
<text text-anchor="middle" x="68" y="-99.8" font-family="Times,serif" font-size="14.00">StateModule</text>
</g>
<!-- StateModule&#45;&gt;ApiModule -->
<g id="edge10" class="edge">
<title>StateModule&#45;&gt;ApiModule</title>
<path fill="none" stroke="black" d="M68,-122.01C68,-144.49 68,-180 68,-180 68,-180 585.61,-180 585.61,-180"/>
<polygon fill="black" stroke="black" points="585.61,-183.5 595.61,-180 585.61,-176.5 585.61,-183.5"/>
</g>
</g>
</svg>
