<?xml version="1.0" encoding="UTF-8" standalone="no"?>
<!DOCTYPE svg PUBLIC "-//W3C//DTD SVG 1.1//EN"
 "http://www.w3.org/Graphics/SVG/1.1/DTD/svg11.dtd">
<!-- Generated by graphviz version 2.47.0 (20210316.0004)
 -->
<!-- Title: dependencies Pages: 1 -->
<svg width="524pt" height="211pt"
 viewBox="0.00 0.00 524.00 211.00" xmlns="http://www.w3.org/2000/svg" xmlns:xlink="http://www.w3.org/1999/xlink">
<g id="graph0" class="graph" transform="scale(1 1) rotate(0) translate(4 207)">
<title>dependencies</title>
<polygon fill="white" stroke="transparent" points="-4,4 -4,-207 520,-207 520,4 -4,4"/>
<text text-anchor="start" x="237.01" y="-42.4" font-family="Times-12" font-weight="bold" font-size="14.00">Legend</text>
<polygon fill="#ffffb3" stroke="transparent" points="24,-10 24,-30 44,-30 44,-10 24,-10"/>
<text text-anchor="start" x="47.63" y="-15.4" font-family="Times-12" font-size="14.00"> &#160;Declarations</text>
<polygon fill="#8dd3c7" stroke="transparent" points="137,-10 137,-30 157,-30 157,-10 137,-10"/>
<text text-anchor="start" x="160.73" y="-15.4" font-family="Times-12" font-size="14.00"> &#160;Module</text>
<polygon fill="#80b1d3" stroke="transparent" points="223,-10 223,-30 243,-30 243,-10 223,-10"/>
<text text-anchor="start" x="246.78" y="-15.4" font-family="Times-12" font-size="14.00"> &#160;Bootstrap</text>
<polygon fill="#fdb462" stroke="transparent" points="320,-10 320,-30 340,-30 340,-10 320,-10"/>
<text text-anchor="start" x="343.67" y="-15.4" font-family="Times-12" font-size="14.00"> &#160;Providers</text>
<polygon fill="#fb8072" stroke="transparent" points="416,-10 416,-30 436,-30 436,-10 416,-10"/>
<text text-anchor="start" x="439.73" y="-15.4" font-family="Times-12" font-size="14.00"> &#160;Exports</text>
<g id="clust1" class="cluster">
<title>cluster_ApiModule</title>
<polygon fill="none" stroke="black" stroke-dasharray="1,5" points="8,-70 8,-195 508,-195 508,-70 8,-70"/>
</g>
<g id="clust3" class="cluster">
<title>cluster_ApiModule_imports</title>
<polygon fill="none" stroke="black" points="16,-78 16,-130 500,-130 500,-78 16,-78"/>
</g>
<!-- CountriesModule -->
<g id="node1" class="node">
<title>CountriesModule</title>
<polygon fill="#8dd3c7" stroke="black" points="491.99,-122 488.99,-126 467.99,-126 464.99,-122 378.01,-122 378.01,-86 491.99,-86 491.99,-122"/>
<text text-anchor="middle" x="435" y="-99.8" font-family="Times,serif" font-size="14.00">CountriesModule</text>
</g>
<!-- ApiModule -->
<g id="node5" class="node">
<title>ApiModule</title>
<polygon fill="#8dd3c7" stroke="black" points="279.05,-187 276.05,-191 255.05,-191 252.05,-187 198.95,-187 198.95,-151 279.05,-151 279.05,-187"/>
<text text-anchor="middle" x="239" y="-164.8" font-family="Times,serif" font-size="14.00">ApiModule</text>
</g>
<!-- CountriesModule&#45;&gt;ApiModule -->
<g id="edge1" class="edge">
<title>CountriesModule&#45;&gt;ApiModule</title>
<path fill="none" stroke="black" d="M435,-122.11C435,-141.34 435,-169 435,-169 435,-169 289.14,-169 289.14,-169"/>
<polygon fill="black" stroke="black" points="289.14,-165.5 279.14,-169 289.14,-172.5 289.14,-165.5"/>
</g>
<!-- CurrenciesModule -->
<g id="node2" class="node">
<title>CurrenciesModule</title>
<polygon fill="#8dd3c7" stroke="black" points="360.19,-122 357.19,-126 336.19,-126 333.19,-122 239.81,-122 239.81,-86 360.19,-86 360.19,-122"/>
<text text-anchor="middle" x="300" y="-99.8" font-family="Times,serif" font-size="14.00">CurrenciesModule</text>
</g>
<!-- CurrenciesModule&#45;&gt;ApiModule -->
<g id="edge2" class="edge">
<title>CurrenciesModule&#45;&gt;ApiModule</title>
<path fill="none" stroke="black" d="M259.59,-122.11C259.59,-122.11 259.59,-140.99 259.59,-140.99"/>
<polygon fill="black" stroke="black" points="256.09,-140.99 259.59,-150.99 263.09,-140.99 256.09,-140.99"/>
</g>
<!-- FilesModule -->
<g id="node3" class="node">
<title>FilesModule</title>
<polygon fill="#8dd3c7" stroke="black" points="222.27,-122 219.27,-126 198.27,-126 195.27,-122 135.73,-122 135.73,-86 222.27,-86 222.27,-122"/>
<text text-anchor="middle" x="179" y="-99.8" font-family="Times,serif" font-size="14.00">FilesModule</text>
</g>
<!-- FilesModule&#45;&gt;ApiModule -->
<g id="edge3" class="edge">
<title>FilesModule&#45;&gt;ApiModule</title>
<path fill="none" stroke="black" d="M210.56,-122.11C210.56,-122.11 210.56,-140.99 210.56,-140.99"/>
<polygon fill="black" stroke="black" points="207.06,-140.99 210.56,-150.99 214.06,-140.99 207.06,-140.99"/>
</g>
<!-- HomeModule -->
<g id="node4" class="node">
<title>HomeModule</title>
<polygon fill="#8dd3c7" stroke="black" points="117.76,-122 114.76,-126 93.76,-126 90.76,-122 24.24,-122 24.24,-86 117.76,-86 117.76,-122"/>
<text text-anchor="middle" x="71" y="-99.8" font-family="Times,serif" font-size="14.00">HomeModule</text>
</g>
<!-- HomeModule&#45;&gt;ApiModule -->
<g id="edge4" class="edge">
<title>HomeModule&#45;&gt;ApiModule</title>
<path fill="none" stroke="black" d="M71,-122.11C71,-141.34 71,-169 71,-169 71,-169 188.76,-169 188.76,-169"/>
<polygon fill="black" stroke="black" points="188.76,-172.5 198.76,-169 188.76,-165.5 188.76,-172.5"/>
</g>
</g>
</svg>
