<?xml version="1.0" encoding="UTF-8" standalone="no"?>
<!DOCTYPE svg PUBLIC "-//W3C//DTD SVG 1.1//EN"
 "http://www.w3.org/Graphics/SVG/1.1/DTD/svg11.dtd">
<!-- Generated by graphviz version 2.47.0 (20210316.0004)
 -->
<!-- Title: dependencies Pages: 1 -->
<svg width="504pt" height="284pt"
 viewBox="0.00 0.00 504.00 284.00" xmlns="http://www.w3.org/2000/svg" xmlns:xlink="http://www.w3.org/1999/xlink">
<g id="graph0" class="graph" transform="scale(1 1) rotate(0) translate(4 280)">
<title>dependencies</title>
<polygon fill="white" stroke="transparent" points="-4,4 -4,-280 500,-280 500,4 -4,4"/>
<text text-anchor="start" x="227.01" y="-42.4" font-family="Times-12" font-weight="bold" font-size="14.00">Legend</text>
<polygon fill="#ffffb3" stroke="transparent" points="14,-10 14,-30 34,-30 34,-10 14,-10"/>
<text text-anchor="start" x="37.63" y="-15.4" font-family="Times-12" font-size="14.00"> &#160;Declarations</text>
<polygon fill="#8dd3c7" stroke="transparent" points="127,-10 127,-30 147,-30 147,-10 127,-10"/>
<text text-anchor="start" x="150.73" y="-15.4" font-family="Times-12" font-size="14.00"> &#160;Module</text>
<polygon fill="#80b1d3" stroke="transparent" points="213,-10 213,-30 233,-30 233,-10 213,-10"/>
<text text-anchor="start" x="236.78" y="-15.4" font-family="Times-12" font-size="14.00"> &#160;Bootstrap</text>
<polygon fill="#fdb462" stroke="transparent" points="310,-10 310,-30 330,-30 330,-10 310,-10"/>
<text text-anchor="start" x="333.67" y="-15.4" font-family="Times-12" font-size="14.00"> &#160;Providers</text>
<polygon fill="#fb8072" stroke="transparent" points="406,-10 406,-30 426,-30 426,-10 406,-10"/>
<text text-anchor="start" x="429.73" y="-15.4" font-family="Times-12" font-size="14.00"> &#160;Exports</text>
<g id="clust1" class="cluster">
<title>cluster_FilesModule</title>
<polygon fill="none" stroke="black" stroke-dasharray="1,5" points="23,-70 23,-268 473,-268 473,-70 23,-70"/>
</g>
<g id="clust6" class="cluster">
<title>cluster_FilesModule_providers</title>
<polygon fill="none" stroke="black" points="331,-78 331,-130 465,-130 465,-78 331,-78"/>
</g>
<g id="clust3" class="cluster">
<title>cluster_FilesModule_imports</title>
<polygon fill="none" stroke="black" points="31,-78 31,-130 323,-130 323,-78 31,-78"/>
</g>
<g id="clust4" class="cluster">
<title>cluster_FilesModule_exports</title>
<polygon fill="none" stroke="black" points="212,-208 212,-260 316,-260 316,-208 212,-208"/>
</g>
<!-- FilesS3Module -->
<g id="node1" class="node">
<title>FilesS3Module</title>
<polygon fill="#8dd3c7" stroke="black" points="314.56,-122 311.56,-126 290.56,-126 287.56,-122 213.44,-122 213.44,-86 314.56,-86 314.56,-122"/>
<text text-anchor="middle" x="264" y="-99.8" font-family="Times,serif" font-size="14.00">FilesS3Module</text>
</g>
<!-- FilesModule -->
<g id="node3" class="node">
<title>FilesModule</title>
<polygon fill="#8dd3c7" stroke="black" points="307.27,-187 304.27,-191 283.27,-191 280.27,-187 220.73,-187 220.73,-151 307.27,-151 307.27,-187"/>
<text text-anchor="middle" x="264" y="-164.8" font-family="Times,serif" font-size="14.00">FilesModule</text>
</g>
<!-- FilesS3Module&#45;&gt;FilesModule -->
<g id="edge1" class="edge">
<title>FilesS3Module&#45;&gt;FilesModule</title>
<path fill="none" stroke="black" d="M264,-122.11C264,-122.11 264,-140.99 264,-140.99"/>
<polygon fill="black" stroke="black" points="260.5,-140.99 264,-150.99 267.5,-140.99 260.5,-140.99"/>
</g>
<!-- FilesS3PresignedModule -->
<g id="node2" class="node">
<title>FilesS3PresignedModule</title>
<polygon fill="#8dd3c7" stroke="black" points="195.26,-122 192.26,-126 171.26,-126 168.26,-122 38.74,-122 38.74,-86 195.26,-86 195.26,-122"/>
<text text-anchor="middle" x="117" y="-99.8" font-family="Times,serif" font-size="14.00">FilesS3PresignedModule</text>
</g>
<!-- FilesS3PresignedModule&#45;&gt;FilesModule -->
<g id="edge2" class="edge">
<title>FilesS3PresignedModule&#45;&gt;FilesModule</title>
<path fill="none" stroke="black" d="M117,-122.11C117,-141.34 117,-169 117,-169 117,-169 210.69,-169 210.69,-169"/>
<polygon fill="black" stroke="black" points="210.69,-172.5 220.69,-169 210.69,-165.5 210.69,-172.5"/>
</g>
<!-- FilesService  -->
<g id="node4" class="node">
<title>FilesService </title>
<polygon fill="#fb8072" stroke="black" points="308.2,-252 219.8,-252 219.8,-216 308.2,-216 308.2,-252"/>
<text text-anchor="middle" x="264" y="-229.8" font-family="Times,serif" font-size="14.00">FilesService </text>
</g>
<!-- FilesModule&#45;&gt;FilesService  -->
<g id="edge3" class="edge">
<title>FilesModule&#45;&gt;FilesService </title>
<path fill="none" stroke="black" stroke-dasharray="5,2" d="M264,-187.11C264,-187.11 264,-205.99 264,-205.99"/>
<polygon fill="black" stroke="black" points="260.5,-205.99 264,-215.99 267.5,-205.99 260.5,-205.99"/>
</g>
<!-- FilesService -->
<g id="node5" class="node">
<title>FilesService</title>
<ellipse fill="#fdb462" stroke="black" cx="398" cy="-104" rx="58.54" ry="18"/>
<text text-anchor="middle" x="398" y="-99.8" font-family="Times,serif" font-size="14.00">FilesService</text>
</g>
<!-- FilesService&#45;&gt;FilesModule -->
<g id="edge4" class="edge">
<title>FilesService&#45;&gt;FilesModule</title>
<path fill="none" stroke="black" d="M398,-122.11C398,-141.34 398,-169 398,-169 398,-169 317.51,-169 317.51,-169"/>
<polygon fill="black" stroke="black" points="317.51,-165.5 307.51,-169 317.51,-172.5 317.51,-165.5"/>
</g>
</g>
</svg>
