<?xml version="1.0" encoding="UTF-8" standalone="no"?>
<!DOCTYPE svg PUBLIC "-//W3C//DTD SVG 1.1//EN"
 "http://www.w3.org/Graphics/SVG/1.1/DTD/svg11.dtd">
<!-- Generated by graphviz version 2.47.0 (20210316.0004)
 -->
<!-- Title: dependencies Pages: 1 -->
<svg width="504pt" height="284pt"
 viewBox="0.00 0.00 504.00 284.00" xmlns="http://www.w3.org/2000/svg" xmlns:xlink="http://www.w3.org/1999/xlink">
<g id="graph0" class="graph" transform="scale(1 1) rotate(0) translate(4 280)">
<title>dependencies</title>
<polygon fill="white" stroke="transparent" points="-4,4 -4,-280 500,-280 500,4 -4,4"/>
<text text-anchor="start" x="227.01" y="-42.4" font-family="Times-12" font-weight="bold" font-size="14.00">Legend</text>
<polygon fill="#ffffb3" stroke="transparent" points="14,-10 14,-30 34,-30 34,-10 14,-10"/>
<text text-anchor="start" x="37.63" y="-15.4" font-family="Times-12" font-size="14.00"> &#160;Declarations</text>
<polygon fill="#8dd3c7" stroke="transparent" points="127,-10 127,-30 147,-30 147,-10 127,-10"/>
<text text-anchor="start" x="150.73" y="-15.4" font-family="Times-12" font-size="14.00"> &#160;Module</text>
<polygon fill="#80b1d3" stroke="transparent" points="213,-10 213,-30 233,-30 233,-10 213,-10"/>
<text text-anchor="start" x="236.78" y="-15.4" font-family="Times-12" font-size="14.00"> &#160;Bootstrap</text>
<polygon fill="#fdb462" stroke="transparent" points="310,-10 310,-30 330,-30 330,-10 310,-10"/>
<text text-anchor="start" x="333.67" y="-15.4" font-family="Times-12" font-size="14.00"> &#160;Providers</text>
<polygon fill="#fb8072" stroke="transparent" points="406,-10 406,-30 426,-30 426,-10 406,-10"/>
<text text-anchor="start" x="429.73" y="-15.4" font-family="Times-12" font-size="14.00"> &#160;Exports</text>
<g id="clust1" class="cluster">
<title>cluster_FilesModule</title>
<polygon fill="none" stroke="black" stroke-dasharray="1,5" points="23,-70 23,-268 473,-268 473,-70 23,-70"/>
</g>
<g id="clust3" class="cluster">
<title>cluster_FilesModule_imports</title>
<polygon fill="none" stroke="black" points="173,-78 173,-130 465,-130 465,-78 173,-78"/>
</g>
<g id="clust4" class="cluster">
<title>cluster_FilesModule_exports</title>
<polygon fill="none" stroke="black" points="207,-208 207,-260 311,-260 311,-208 207,-208"/>
</g>
<g id="clust6" class="cluster">
<title>cluster_FilesModule_providers</title>
<polygon fill="none" stroke="black" points="31,-78 31,-130 165,-130 165,-78 31,-78"/>
</g>
<!-- FilesS3Module -->
<g id="node1" class="node">
<title>FilesS3Module</title>
<polygon fill="#8dd3c7" stroke="black" points="456.56,-122 453.56,-126 432.56,-126 429.56,-122 355.44,-122 355.44,-86 456.56,-86 456.56,-122"/>
<text text-anchor="middle" x="406" y="-99.8" font-family="Times,serif" font-size="14.00">FilesS3Module</text>
</g>
<!-- FilesModule -->
<g id="node3" class="node">
<title>FilesModule</title>
<polygon fill="#8dd3c7" stroke="black" points="302.27,-187 299.27,-191 278.27,-191 275.27,-187 215.73,-187 215.73,-151 302.27,-151 302.27,-187"/>
<text text-anchor="middle" x="259" y="-164.8" font-family="Times,serif" font-size="14.00">FilesModule</text>
</g>
<!-- FilesS3Module&#45;&gt;FilesModule -->
<g id="edge1" class="edge">
<title>FilesS3Module&#45;&gt;FilesModule</title>
<path fill="none" stroke="black" d="M406,-122.11C406,-141.34 406,-169 406,-169 406,-169 312.31,-169 312.31,-169"/>
<polygon fill="black" stroke="black" points="312.31,-165.5 302.31,-169 312.31,-172.5 312.31,-165.5"/>
</g>
<!-- FilesS3PresignedModule -->
<g id="node2" class="node">
<title>FilesS3PresignedModule</title>
<polygon fill="#8dd3c7" stroke="black" points="337.26,-122 334.26,-126 313.26,-126 310.26,-122 180.74,-122 180.74,-86 337.26,-86 337.26,-122"/>
<text text-anchor="middle" x="259" y="-99.8" font-family="Times,serif" font-size="14.00">FilesS3PresignedModule</text>
</g>
<!-- FilesS3PresignedModule&#45;&gt;FilesModule -->
<g id="edge2" class="edge">
<title>FilesS3PresignedModule&#45;&gt;FilesModule</title>
<path fill="none" stroke="black" d="M259,-122.11C259,-122.11 259,-140.99 259,-140.99"/>
<polygon fill="black" stroke="black" points="255.5,-140.99 259,-150.99 262.5,-140.99 255.5,-140.99"/>
</g>
<!-- FilesService  -->
<g id="node4" class="node">
<title>FilesService </title>
<polygon fill="#fb8072" stroke="black" points="303.2,-252 214.8,-252 214.8,-216 303.2,-216 303.2,-252"/>
<text text-anchor="middle" x="259" y="-229.8" font-family="Times,serif" font-size="14.00">FilesService </text>
</g>
<!-- FilesModule&#45;&gt;FilesService  -->
<g id="edge3" class="edge">
<title>FilesModule&#45;&gt;FilesService </title>
<path fill="none" stroke="black" stroke-dasharray="5,2" d="M259,-187.11C259,-187.11 259,-205.99 259,-205.99"/>
<polygon fill="black" stroke="black" points="255.5,-205.99 259,-215.99 262.5,-205.99 255.5,-205.99"/>
</g>
<!-- FilesService -->
<g id="node5" class="node">
<title>FilesService</title>
<ellipse fill="#fdb462" stroke="black" cx="98" cy="-104" rx="58.54" ry="18"/>
<text text-anchor="middle" x="98" y="-99.8" font-family="Times,serif" font-size="14.00">FilesService</text>
</g>
<!-- FilesService&#45;&gt;FilesModule -->
<g id="edge4" class="edge">
<title>FilesService&#45;&gt;FilesModule</title>
<path fill="none" stroke="black" d="M98,-122.11C98,-141.34 98,-169 98,-169 98,-169 205.43,-169 205.43,-169"/>
<polygon fill="black" stroke="black" points="205.43,-172.5 215.43,-169 205.43,-165.5 205.43,-172.5"/>
</g>
</g>
</svg>
