<?xml version="1.0" encoding="UTF-8" standalone="no"?>
<!DOCTYPE svg PUBLIC "-//W3C//DTD SVG 1.1//EN"
 "http://www.w3.org/Graphics/SVG/1.1/DTD/svg11.dtd">
<!-- Generated by graphviz version 2.47.0 (20210316.0004)
 -->
<!-- Title: dependencies Pages: 1 -->
<svg width="504pt" height="211pt"
 viewBox="0.00 0.00 504.00 211.00" xmlns="http://www.w3.org/2000/svg" xmlns:xlink="http://www.w3.org/1999/xlink">
<g id="graph0" class="graph" transform="scale(1 1) rotate(0) translate(4 207)">
<title>dependencies</title>
<polygon fill="white" stroke="transparent" points="-4,4 -4,-207 500,-207 500,4 -4,4"/>
<text text-anchor="start" x="227.01" y="-42.4" font-family="Times-12" font-weight="bold" font-size="14.00">Legend</text>
<polygon fill="#ffffb3" stroke="transparent" points="14,-10 14,-30 34,-30 34,-10 14,-10"/>
<text text-anchor="start" x="37.63" y="-15.4" font-family="Times-12" font-size="14.00"> &#160;Declarations</text>
<polygon fill="#8dd3c7" stroke="transparent" points="127,-10 127,-30 147,-30 147,-10 127,-10"/>
<text text-anchor="start" x="150.73" y="-15.4" font-family="Times-12" font-size="14.00"> &#160;Module</text>
<polygon fill="#80b1d3" stroke="transparent" points="213,-10 213,-30 233,-30 233,-10 213,-10"/>
<text text-anchor="start" x="236.78" y="-15.4" font-family="Times-12" font-size="14.00"> &#160;Bootstrap</text>
<polygon fill="#fdb462" stroke="transparent" points="310,-10 310,-30 330,-30 330,-10 310,-10"/>
<text text-anchor="start" x="333.67" y="-15.4" font-family="Times-12" font-size="14.00"> &#160;Providers</text>
<polygon fill="#fb8072" stroke="transparent" points="406,-10 406,-30 426,-30 426,-10 406,-10"/>
<text text-anchor="start" x="429.73" y="-15.4" font-family="Times-12" font-size="14.00"> &#160;Exports</text>
<g id="clust1" class="cluster">
<title>cluster_AppModule</title>
<polygon fill="none" stroke="black" stroke-dasharray="1,5" points="134,-70 134,-195 362,-195 362,-70 134,-70"/>
</g>
<g id="clust3" class="cluster">
<title>cluster_AppModule_imports</title>
<polygon fill="none" stroke="black" points="142,-78 142,-130 354,-130 354,-78 142,-78"/>
</g>
<!-- ApiModule -->
<g id="node1" class="node">
<title>ApiModule</title>
<polygon fill="#8dd3c7" stroke="black" points="346.05,-122 343.05,-126 322.05,-126 319.05,-122 265.95,-122 265.95,-86 346.05,-86 346.05,-122"/>
<text text-anchor="middle" x="306" y="-99.8" font-family="Times,serif" font-size="14.00">ApiModule</text>
</g>
<!-- AppModule -->
<g id="node3" class="node">
<title>AppModule</title>
<polygon fill="#8dd3c7" stroke="black" points="293.66,-187 290.66,-191 269.66,-191 266.66,-187 210.34,-187 210.34,-151 293.66,-151 293.66,-187"/>
<text text-anchor="middle" x="252" y="-164.8" font-family="Times,serif" font-size="14.00">AppModule</text>
</g>
<!-- ApiModule&#45;&gt;AppModule -->
<g id="edge1" class="edge">
<title>ApiModule&#45;&gt;AppModule</title>
<path fill="none" stroke="black" d="M279.78,-122.11C279.78,-122.11 279.78,-140.99 279.78,-140.99"/>
<polygon fill="black" stroke="black" points="276.28,-140.99 279.78,-150.99 283.28,-140.99 276.28,-140.99"/>
</g>
<!-- HelperModule -->
<g id="node2" class="node">
<title>HelperModule</title>
<polygon fill="#8dd3c7" stroke="black" points="247.64,-122 244.64,-126 223.64,-126 220.64,-122 150.36,-122 150.36,-86 247.64,-86 247.64,-122"/>
<text text-anchor="middle" x="199" y="-99.8" font-family="Times,serif" font-size="14.00">HelperModule</text>
</g>
<!-- HelperModule&#45;&gt;AppModule -->
<g id="edge2" class="edge">
<title>HelperModule&#45;&gt;AppModule</title>
<path fill="none" stroke="black" d="M229,-122.11C229,-122.11 229,-140.99 229,-140.99"/>
<polygon fill="black" stroke="black" points="225.5,-140.99 229,-150.99 232.5,-140.99 225.5,-140.99"/>
</g>
</g>
</svg>
