<?xml version="1.0" encoding="UTF-8" standalone="no"?>
<!DOCTYPE svg PUBLIC "-//W3C//DTD SVG 1.1//EN"
 "http://www.w3.org/Graphics/SVG/1.1/DTD/svg11.dtd">
<!-- Generated by graphviz version 2.47.0 (20210316.0004)
 -->
<!-- Title: dependencies Pages: 1 -->
<svg width="1559pt" height="382pt"
 viewBox="0.00 0.00 1559.00 382.00" xmlns="http://www.w3.org/2000/svg" xmlns:xlink="http://www.w3.org/1999/xlink">
<g id="graph0" class="graph" transform="scale(1 1) rotate(0) translate(4 378)">
<title>dependencies</title>
<polygon fill="white" stroke="transparent" points="-4,4 -4,-378 1555,-378 1555,4 -4,4"/>
<text text-anchor="start" x="754.51" y="-42.4" font-family="Times-12" font-weight="bold" font-size="14.00">Legend</text>
<polygon fill="#ffffb3" stroke="transparent" points="541.5,-10 541.5,-30 561.5,-30 561.5,-10 541.5,-10"/>
<text text-anchor="start" x="565.13" y="-15.4" font-family="Times-12" font-size="14.00"> &#160;Declarations</text>
<polygon fill="#8dd3c7" stroke="transparent" points="654.5,-10 654.5,-30 674.5,-30 674.5,-10 654.5,-10"/>
<text text-anchor="start" x="678.23" y="-15.4" font-family="Times-12" font-size="14.00"> &#160;Module</text>
<polygon fill="#80b1d3" stroke="transparent" points="740.5,-10 740.5,-30 760.5,-30 760.5,-10 740.5,-10"/>
<text text-anchor="start" x="764.28" y="-15.4" font-family="Times-12" font-size="14.00"> &#160;Bootstrap</text>
<polygon fill="#fdb462" stroke="transparent" points="837.5,-10 837.5,-30 857.5,-30 857.5,-10 837.5,-10"/>
<text text-anchor="start" x="861.17" y="-15.4" font-family="Times-12" font-size="14.00"> &#160;Providers</text>
<polygon fill="#fb8072" stroke="transparent" points="933.5,-10 933.5,-30 953.5,-30 953.5,-10 933.5,-10"/>
<text text-anchor="start" x="957.23" y="-15.4" font-family="Times-12" font-size="14.00"> &#160;Exports</text>
<g id="clust1" class="cluster">
<title>cluster_ApiModule</title>
<polygon fill="none" stroke="black" stroke-dasharray="1,5" points="99,-146 99,-282 599,-282 599,-146 99,-146"/>
</g>
<g id="clust3" class="cluster">
<title>cluster_ApiModule_imports</title>
<polygon fill="none" stroke="black" points="107,-154 107,-206 591,-206 591,-154 107,-154"/>
</g>
<g id="clust7" class="cluster">
<title>cluster_AppModule</title>
<polygon fill="none" stroke="black" stroke-dasharray="1,5" points="607,-222 607,-358 737,-358 737,-222 607,-222"/>
</g>
<g id="clust9" class="cluster">
<title>cluster_AppModule_imports</title>
<polygon fill="none" stroke="black" points="615,-230 615,-282 729,-282 729,-230 615,-230"/>
</g>
<g id="clust13" class="cluster">
<title>cluster_CountriesModule</title>
<polygon fill="none" stroke="black" stroke-dasharray="1,5" points="745,-222 745,-290 1073,-290 1073,-222 745,-222"/>
</g>
<g id="clust16" class="cluster">
<title>cluster_CountriesModule_exports</title>
<polygon fill="none" stroke="black" points="933,-230 933,-282 1065,-282 1065,-230 933,-230"/>
</g>
<g id="clust18" class="cluster">
<title>cluster_CountriesModule_providers</title>
<polygon fill="none" stroke="black" points="753,-230 753,-282 925,-282 925,-230 753,-230"/>
</g>
<g id="clust19" class="cluster">
<title>cluster_CurrenciesModule</title>
<polygon fill="none" stroke="black" stroke-dasharray="1,5" points="8,-70 8,-138 204,-138 204,-70 8,-70"/>
</g>
<g id="clust24" class="cluster">
<title>cluster_CurrenciesModule_providers</title>
<polygon fill="none" stroke="black" points="16,-78 16,-130 196,-130 196,-78 16,-78"/>
</g>
<g id="clust25" class="cluster">
<title>cluster_FilesLocalModule</title>
<polygon fill="none" stroke="black" stroke-dasharray="1,5" points="1349,-70 1349,-290 1543,-290 1543,-70 1349,-70"/>
</g>
<g id="clust28" class="cluster">
<title>cluster_FilesLocalModule_exports</title>
<polygon fill="none" stroke="black" points="1378,-230 1378,-282 1514,-282 1514,-230 1378,-230"/>
</g>
<g id="clust30" class="cluster">
<title>cluster_FilesLocalModule_providers</title>
<polygon fill="none" stroke="black" points="1357,-78 1357,-130 1535,-130 1535,-78 1357,-78"/>
</g>
<g id="clust31" class="cluster">
<title>cluster_FilesModule</title>
<polygon fill="none" stroke="black" stroke-dasharray="1,5" points="380,-70 380,-138 942,-138 942,-70 380,-70"/>
</g>
<g id="clust33" class="cluster">
<title>cluster_FilesModule_imports</title>
<polygon fill="none" stroke="black" points="642,-78 642,-130 934,-130 934,-78 642,-78"/>
</g>
<g id="clust34" class="cluster">
<title>cluster_FilesModule_exports</title>
<polygon fill="none" stroke="black" points="530,-78 530,-130 634,-130 634,-78 530,-78"/>
</g>
<g id="clust36" class="cluster">
<title>cluster_FilesModule_providers</title>
<polygon fill="none" stroke="black" points="388,-78 388,-130 522,-130 522,-78 388,-78"/>
</g>
<g id="clust37" class="cluster">
<title>cluster_FilesS3Module</title>
<polygon fill="none" stroke="black" stroke-dasharray="1,5" points="607,-146 607,-214 905,-214 905,-146 607,-146"/>
</g>
<g id="clust40" class="cluster">
<title>cluster_FilesS3Module_exports</title>
<polygon fill="none" stroke="black" points="777,-154 777,-206 897,-206 897,-154 777,-154"/>
</g>
<g id="clust42" class="cluster">
<title>cluster_FilesS3Module_providers</title>
<polygon fill="none" stroke="black" points="615,-154 615,-206 769,-206 769,-154 615,-154"/>
</g>
<g id="clust43" class="cluster">
<title>cluster_FilesS3PresignedModule</title>
<polygon fill="none" stroke="black" stroke-dasharray="1,5" points="913,-146 913,-214 1341,-214 1341,-146 913,-146"/>
</g>
<g id="clust46" class="cluster">
<title>cluster_FilesS3PresignedModule_exports</title>
<polygon fill="none" stroke="black" points="1159,-154 1159,-206 1333,-206 1333,-154 1159,-154"/>
</g>
<g id="clust48" class="cluster">
<title>cluster_FilesS3PresignedModule_providers</title>
<polygon fill="none" stroke="black" points="921,-154 921,-206 1151,-206 1151,-154 921,-154"/>
</g>
<g id="clust49" class="cluster">
<title>cluster_HelperModule</title>
<polygon fill="none" stroke="black" stroke-dasharray="1,5" points="745,-298 745,-366 1462,-366 1462,-298 745,-298"/>
</g>
<g id="clust52" class="cluster">
<title>cluster_HelperModule_exports</title>
<polygon fill="none" stroke="black" points="1091,-306 1091,-358 1454,-358 1454,-306 1091,-306"/>
</g>
<g id="clust54" class="cluster">
<title>cluster_HelperModule_providers</title>
<polygon fill="none" stroke="black" points="753,-306 753,-358 1083,-358 1083,-306 753,-306"/>
</g>
<g id="clust55" class="cluster">
<title>cluster_HomeModule</title>
<polygon fill="none" stroke="black" stroke-dasharray="1,5" points="212,-70 212,-138 372,-138 372,-70 212,-70"/>
</g>
<g id="clust60" class="cluster">
<title>cluster_HomeModule_providers</title>
<polygon fill="none" stroke="black" points="220,-78 220,-130 364,-130 364,-78 220,-78"/>
</g>
<!-- CountriesModule -->
<g id="node1" class="node">
<title>CountriesModule</title>
<polygon fill="#8dd3c7" stroke="black" points="582.99,-198 579.99,-202 558.99,-202 555.99,-198 469.01,-198 469.01,-162 582.99,-162 582.99,-198"/>
<text text-anchor="middle" x="526" y="-175.8" font-family="Times,serif" font-size="14.00">CountriesModule</text>
</g>
<!-- ApiModule -->
<g id="node5" class="node">
<title>ApiModule</title>
<polygon fill="#8dd3c7" stroke="black" points="448.05,-274 445.05,-278 424.05,-278 421.05,-274 367.95,-274 367.95,-238 448.05,-238 448.05,-274"/>
<text text-anchor="middle" x="408" y="-251.8" font-family="Times,serif" font-size="14.00">ApiModule</text>
</g>
<!-- CountriesModule&#45;&gt;ApiModule -->
<g id="edge1" class="edge">
<title>CountriesModule&#45;&gt;ApiModule</title>
<path fill="none" stroke="black" d="M554.5,-198.01C554.5,-220.49 554.5,-256 554.5,-256 554.5,-256 458.42,-256 458.42,-256"/>
<polygon fill="black" stroke="black" points="458.42,-252.5 448.42,-256 458.42,-259.5 458.42,-252.5"/>
</g>
<!-- CountriesService  -->
<g id="node8" class="node">
<title>CountriesService </title>
<polygon fill="#fb8072" stroke="black" points="1056.92,-274 941.08,-274 941.08,-238 1056.92,-238 1056.92,-274"/>
<text text-anchor="middle" x="999" y="-251.8" font-family="Times,serif" font-size="14.00">CountriesService </text>
</g>
<!-- CountriesModule&#45;&gt;CountriesService  -->
<g id="edge7" class="edge">
<title>CountriesModule&#45;&gt;CountriesService </title>
<path fill="none" stroke="black" stroke-dasharray="5,2" d="M497.5,-198.24C497.5,-205.43 497.5,-212 497.5,-212 497.5,-212 999,-212 999,-212 999,-212 999,-227.85 999,-227.85"/>
<polygon fill="black" stroke="black" points="995.5,-227.85 999,-237.85 1002.5,-227.85 995.5,-227.85"/>
</g>
<!-- CurrenciesModule -->
<g id="node2" class="node">
<title>CurrenciesModule</title>
<polygon fill="#8dd3c7" stroke="black" points="235.19,-198 232.19,-202 211.19,-202 208.19,-198 114.81,-198 114.81,-162 235.19,-162 235.19,-198"/>
<text text-anchor="middle" x="175" y="-175.8" font-family="Times,serif" font-size="14.00">CurrenciesModule</text>
</g>
<!-- CurrenciesModule&#45;&gt;ApiModule -->
<g id="edge2" class="edge">
<title>CurrenciesModule&#45;&gt;ApiModule</title>
<path fill="none" stroke="black" d="M175,-198.2C175,-222.36 175,-262 175,-262 175,-262 357.95,-262 357.95,-262"/>
<polygon fill="black" stroke="black" points="357.95,-265.5 367.95,-262 357.95,-258.5 357.95,-265.5"/>
</g>
<!-- FilesModule -->
<g id="node3" class="node">
<title>FilesModule</title>
<polygon fill="#8dd3c7" stroke="black" points="451.27,-198 448.27,-202 427.27,-202 424.27,-198 364.73,-198 364.73,-162 451.27,-162 451.27,-198"/>
<text text-anchor="middle" x="408" y="-175.8" font-family="Times,serif" font-size="14.00">FilesModule</text>
</g>
<!-- FilesModule&#45;&gt;ApiModule -->
<g id="edge3" class="edge">
<title>FilesModule&#45;&gt;ApiModule</title>
<path fill="none" stroke="black" d="M408,-198.01C408,-198.01 408,-227.85 408,-227.85"/>
<polygon fill="black" stroke="black" points="404.5,-227.85 408,-237.85 411.5,-227.85 404.5,-227.85"/>
</g>
<!-- FilesService  -->
<g id="node16" class="node">
<title>FilesService </title>
<polygon fill="#fb8072" stroke="black" points="626.2,-122 537.8,-122 537.8,-86 626.2,-86 626.2,-122"/>
<text text-anchor="middle" x="582" y="-99.8" font-family="Times,serif" font-size="14.00">FilesService </text>
</g>
<!-- FilesModule&#45;&gt;FilesService  -->
<g id="edge14" class="edge">
<title>FilesModule&#45;&gt;FilesService </title>
<path fill="none" stroke="black" stroke-dasharray="5,2" d="M440.36,-161.85C440.36,-148.26 440.36,-132 440.36,-132 440.36,-132 560.32,-132 560.32,-132 560.32,-132 560.32,-131.02 560.32,-131.02"/>
<polygon fill="black" stroke="black" points="563.82,-132.21 560.32,-122.21 556.82,-132.21 563.82,-132.21"/>
</g>
<!-- HomeModule -->
<g id="node4" class="node">
<title>HomeModule</title>
<polygon fill="#8dd3c7" stroke="black" points="346.76,-198 343.76,-202 322.76,-202 319.76,-198 253.24,-198 253.24,-162 346.76,-162 346.76,-198"/>
<text text-anchor="middle" x="300" y="-175.8" font-family="Times,serif" font-size="14.00">HomeModule</text>
</g>
<!-- HomeModule&#45;&gt;ApiModule -->
<g id="edge4" class="edge">
<title>HomeModule&#45;&gt;ApiModule</title>
<path fill="none" stroke="black" d="M300,-198.03C300,-218.77 300,-250 300,-250 300,-250 357.78,-250 357.78,-250"/>
<polygon fill="black" stroke="black" points="357.78,-253.5 367.78,-250 357.78,-246.5 357.78,-253.5"/>
</g>
<!-- AppModule -->
<g id="node7" class="node">
<title>AppModule</title>
<polygon fill="#8dd3c7" stroke="black" points="705.66,-350 702.66,-354 681.66,-354 678.66,-350 622.34,-350 622.34,-314 705.66,-314 705.66,-350"/>
<text text-anchor="middle" x="664" y="-327.8" font-family="Times,serif" font-size="14.00">AppModule</text>
</g>
<!-- ApiModule&#45;&gt;AppModule -->
<g id="edge5" class="edge">
<title>ApiModule&#45;&gt;AppModule</title>
<path fill="none" stroke="black" d="M408,-274.01C408,-296.49 408,-332 408,-332 408,-332 612.3,-332 612.3,-332"/>
<polygon fill="black" stroke="black" points="612.3,-335.5 622.3,-332 612.3,-328.5 612.3,-335.5"/>
</g>
<!-- HelperModule -->
<g id="node6" class="node">
<title>HelperModule</title>
<polygon fill="#8dd3c7" stroke="black" points="720.64,-274 717.64,-278 696.64,-278 693.64,-274 623.36,-274 623.36,-238 720.64,-238 720.64,-274"/>
<text text-anchor="middle" x="672" y="-251.8" font-family="Times,serif" font-size="14.00">HelperModule</text>
</g>
<!-- HelperModule&#45;&gt;AppModule -->
<g id="edge6" class="edge">
<title>HelperModule&#45;&gt;AppModule</title>
<path fill="none" stroke="black" d="M664.5,-274.01C664.5,-274.01 664.5,-303.85 664.5,-303.85"/>
<polygon fill="black" stroke="black" points="661,-303.85 664.5,-313.85 668,-303.85 661,-303.85"/>
</g>
<!-- PaginationService  -->
<g id="node22" class="node">
<title>PaginationService </title>
<polygon fill="#fb8072" stroke="black" points="1445.86,-350 1324.14,-350 1324.14,-314 1445.86,-314 1445.86,-350"/>
<text text-anchor="middle" x="1385" y="-327.8" font-family="Times,serif" font-size="14.00">PaginationService </text>
</g>
<!-- HelperModule&#45;&gt;PaginationService  -->
<g id="edge20" class="edge">
<title>HelperModule&#45;&gt;PaginationService </title>
<path fill="none" stroke="black" stroke-dasharray="5,2" d="M713.32,-274.06C713.32,-278.49 713.32,-282 713.32,-282 713.32,-282 1345.3,-282 1345.3,-282 1345.3,-282 1345.3,-303.95 1345.3,-303.95"/>
<polygon fill="black" stroke="black" points="1341.8,-303.95 1345.3,-313.95 1348.8,-303.95 1341.8,-303.95"/>
</g>
<!-- PrismaService  -->
<g id="node23" class="node">
<title>PrismaService </title>
<polygon fill="#fb8072" stroke="black" points="1306.36,-350 1205.64,-350 1205.64,-314 1306.36,-314 1306.36,-350"/>
<text text-anchor="middle" x="1256" y="-327.8" font-family="Times,serif" font-size="14.00">PrismaService </text>
</g>
<!-- HelperModule&#45;&gt;PrismaService  -->
<g id="edge21" class="edge">
<title>HelperModule&#45;&gt;PrismaService </title>
<path fill="none" stroke="black" stroke-dasharray="5,2" d="M710.82,-274.19C710.82,-282.28 710.82,-290 710.82,-290 710.82,-290 1256,-290 1256,-290 1256,-290 1256,-303.94 1256,-303.94"/>
<polygon fill="black" stroke="black" points="1252.5,-303.94 1256,-313.94 1259.5,-303.94 1252.5,-303.94"/>
</g>
<!-- UtilsService  -->
<g id="node24" class="node">
<title>UtilsService </title>
<polygon fill="#fb8072" stroke="black" points="1187.2,-350 1098.8,-350 1098.8,-314 1187.2,-314 1187.2,-350"/>
<text text-anchor="middle" x="1143" y="-327.8" font-family="Times,serif" font-size="14.00">UtilsService </text>
</g>
<!-- HelperModule&#45;&gt;UtilsService  -->
<g id="edge22" class="edge">
<title>HelperModule&#45;&gt;UtilsService </title>
<path fill="none" stroke="black" stroke-dasharray="5,2" d="M708.33,-274.06C708.33,-285.44 708.33,-298 708.33,-298 708.33,-298 1120.85,-298 1120.85,-298 1120.85,-298 1120.85,-303.81 1120.85,-303.81"/>
<polygon fill="black" stroke="black" points="1117.35,-303.81 1120.85,-313.81 1124.35,-303.81 1117.35,-303.81"/>
</g>
<!-- CountriesService -->
<g id="node9" class="node">
<title>CountriesService</title>
<ellipse fill="#fdb462" stroke="black" cx="839" cy="-256" rx="77.58" ry="18"/>
<text text-anchor="middle" x="839" y="-251.8" font-family="Times,serif" font-size="14.00">CountriesService</text>
</g>
<!-- CountriesService&#45;&gt;CountriesModule -->
<g id="edge8" class="edge">
<title>CountriesService&#45;&gt;CountriesModule</title>
<path fill="none" stroke="black" d="M764.18,-251.16C764.18,-242.44 764.18,-225 764.18,-225 764.18,-225 526,-225 526,-225 526,-225 526,-208.04 526,-208.04"/>
<polygon fill="black" stroke="black" points="529.5,-208.04 526,-198.04 522.5,-208.04 529.5,-208.04"/>
</g>
<!-- CurrenciesService -->
<g id="node10" class="node">
<title>CurrenciesService</title>
<ellipse fill="#fdb462" stroke="black" cx="106" cy="-104" rx="81.64" ry="18"/>
<text text-anchor="middle" x="106" y="-99.8" font-family="Times,serif" font-size="14.00">CurrenciesService</text>
</g>
<!-- CurrenciesService&#45;&gt;CurrenciesModule -->
<g id="edge9" class="edge">
<title>CurrenciesService&#45;&gt;CurrenciesModule</title>
<path fill="none" stroke="black" d="M151.36,-119.02C151.36,-119.02 151.36,-151.8 151.36,-151.8"/>
<polygon fill="black" stroke="black" points="147.86,-151.8 151.36,-161.8 154.86,-151.8 147.86,-151.8"/>
</g>
<!-- FilesLocalService  -->
<g id="node11" class="node">
<title>FilesLocalService </title>
<polygon fill="#fb8072" stroke="black" points="1506.07,-274 1385.93,-274 1385.93,-238 1506.07,-238 1506.07,-274"/>
<text text-anchor="middle" x="1446" y="-251.8" font-family="Times,serif" font-size="14.00">FilesLocalService </text>
</g>
<!-- FilesLocalModule -->
<g id="node12" class="node">
<title>FilesLocalModule</title>
<polygon fill="#8dd3c7" stroke="black" points="1505.15,-198 1502.15,-202 1481.15,-202 1478.15,-198 1386.85,-198 1386.85,-162 1505.15,-162 1505.15,-198"/>
<text text-anchor="middle" x="1446" y="-175.8" font-family="Times,serif" font-size="14.00">FilesLocalModule</text>
</g>
<!-- FilesLocalModule&#45;&gt;FilesLocalService  -->
<g id="edge10" class="edge">
<title>FilesLocalModule&#45;&gt;FilesLocalService </title>
<path fill="none" stroke="black" stroke-dasharray="5,2" d="M1446,-198.01C1446,-198.01 1446,-227.85 1446,-227.85"/>
<polygon fill="black" stroke="black" points="1442.5,-227.85 1446,-237.85 1449.5,-227.85 1442.5,-227.85"/>
</g>
<!-- FilesLocalService -->
<g id="node13" class="node">
<title>FilesLocalService</title>
<ellipse fill="#fdb462" stroke="black" cx="1446" cy="-104" rx="80.51" ry="18"/>
<text text-anchor="middle" x="1446" y="-99.8" font-family="Times,serif" font-size="14.00">FilesLocalService</text>
</g>
<!-- FilesLocalService&#45;&gt;FilesLocalModule -->
<g id="edge11" class="edge">
<title>FilesLocalService&#45;&gt;FilesLocalModule</title>
<path fill="none" stroke="black" d="M1446,-122.01C1446,-122.01 1446,-151.85 1446,-151.85"/>
<polygon fill="black" stroke="black" points="1442.5,-151.85 1446,-161.85 1449.5,-151.85 1442.5,-151.85"/>
</g>
<!-- FilesS3Module -->
<g id="node14" class="node">
<title>FilesS3Module</title>
<polygon fill="#8dd3c7" stroke="black" points="751.56,-122 748.56,-126 727.56,-126 724.56,-122 650.44,-122 650.44,-86 751.56,-86 751.56,-122"/>
<text text-anchor="middle" x="701" y="-99.8" font-family="Times,serif" font-size="14.00">FilesS3Module</text>
</g>
<!-- FilesS3Module&#45;&gt;FilesModule -->
<g id="edge12" class="edge">
<title>FilesS3Module&#45;&gt;FilesModule</title>
<path fill="none" stroke="black" d="M684.07,-122.11C684.07,-131.9 684.07,-142 684.07,-142 684.07,-142 418.29,-142 418.29,-142 418.29,-142 418.29,-151.89 418.29,-151.89"/>
<polygon fill="black" stroke="black" points="414.79,-151.89 418.29,-161.89 421.79,-151.89 414.79,-151.89"/>
</g>
<!-- FilesS3Service  -->
<g id="node18" class="node">
<title>FilesS3Service </title>
<polygon fill="#fb8072" stroke="black" points="888.98,-198 785.02,-198 785.02,-162 888.98,-162 888.98,-198"/>
<text text-anchor="middle" x="837" y="-175.8" font-family="Times,serif" font-size="14.00">FilesS3Service </text>
</g>
<!-- FilesS3Module&#45;&gt;FilesS3Service  -->
<g id="edge16" class="edge">
<title>FilesS3Module&#45;&gt;FilesS3Service </title>
<path fill="none" stroke="black" stroke-dasharray="5,2" d="M751.61,-104C760.46,-104 766.9,-104 766.9,-104 766.9,-104 766.9,-180 766.9,-180 766.9,-180 774.95,-180 774.95,-180"/>
<polygon fill="black" stroke="black" points="774.95,-183.5 784.95,-180 774.95,-176.5 774.95,-183.5"/>
</g>
<!-- FilesS3PresignedModule -->
<g id="node15" class="node">
<title>FilesS3PresignedModule</title>
<polygon fill="#8dd3c7" stroke="black" points="926.26,-122 923.26,-126 902.26,-126 899.26,-122 769.74,-122 769.74,-86 926.26,-86 926.26,-122"/>
<text text-anchor="middle" x="848" y="-99.8" font-family="Times,serif" font-size="14.00">FilesS3PresignedModule</text>
</g>
<!-- FilesS3PresignedModule&#45;&gt;FilesModule -->
<g id="edge13" class="edge">
<title>FilesS3PresignedModule&#45;&gt;FilesModule</title>
<path fill="none" stroke="black" d="M777.44,-122.15C777.44,-135.74 777.44,-152 777.44,-152 777.44,-152 429.32,-152 429.32,-152 429.32,-152 429.32,-152.98 429.32,-152.98"/>
<polygon fill="black" stroke="black" points="425.82,-151.79 429.32,-161.79 432.82,-151.79 425.82,-151.79"/>
</g>
<!-- FilesS3PresignedService  -->
<g id="node20" class="node">
<title>FilesS3PresignedService </title>
<polygon fill="#fb8072" stroke="black" points="1325.19,-198 1166.81,-198 1166.81,-162 1325.19,-162 1325.19,-198"/>
<text text-anchor="middle" x="1246" y="-175.8" font-family="Times,serif" font-size="14.00">FilesS3PresignedService </text>
</g>
<!-- FilesS3PresignedModule&#45;&gt;FilesS3PresignedService  -->
<g id="edge18" class="edge">
<title>FilesS3PresignedModule&#45;&gt;FilesS3PresignedService </title>
<path fill="none" stroke="black" stroke-dasharray="5,2" d="M926.63,-104C1042.62,-104 1246,-104 1246,-104 1246,-104 1246,-151.99 1246,-151.99"/>
<polygon fill="black" stroke="black" points="1242.5,-151.99 1246,-161.99 1249.5,-151.99 1242.5,-151.99"/>
</g>
<!-- FilesService -->
<g id="node17" class="node">
<title>FilesService</title>
<ellipse fill="#fdb462" stroke="black" cx="455" cy="-104" rx="58.54" ry="18"/>
<text text-anchor="middle" x="455" y="-99.8" font-family="Times,serif" font-size="14.00">FilesService</text>
</g>
<!-- FilesService&#45;&gt;FilesModule -->
<g id="edge15" class="edge">
<title>FilesService&#45;&gt;FilesModule</title>
<path fill="none" stroke="black" d="M407.26,-114.57C407.26,-114.57 407.26,-151.93 407.26,-151.93"/>
<polygon fill="black" stroke="black" points="403.76,-151.93 407.26,-161.93 410.76,-151.93 403.76,-151.93"/>
</g>
<!-- FilesS3Service -->
<g id="node19" class="node">
<title>FilesS3Service</title>
<ellipse fill="#fdb462" stroke="black" cx="692" cy="-180" rx="68.93" ry="18"/>
<text text-anchor="middle" x="692" y="-175.8" font-family="Times,serif" font-size="14.00">FilesS3Service</text>
</g>
<!-- FilesS3Service&#45;&gt;FilesS3Module -->
<g id="edge17" class="edge">
<title>FilesS3Service&#45;&gt;FilesS3Module</title>
<path fill="none" stroke="black" d="M717.93,-163.13C717.93,-163.13 717.93,-132.15 717.93,-132.15"/>
<polygon fill="black" stroke="black" points="721.43,-132.15 717.93,-122.15 714.43,-132.15 721.43,-132.15"/>
</g>
<!-- FilesS3PresignedService -->
<g id="node21" class="node">
<title>FilesS3PresignedService</title>
<ellipse fill="#fdb462" stroke="black" cx="1036" cy="-180" rx="107.1" ry="18"/>
<text text-anchor="middle" x="1036" y="-175.8" font-family="Times,serif" font-size="14.00">FilesS3PresignedService</text>
</g>
<!-- FilesS3PresignedService&#45;&gt;FilesS3PresignedModule -->
<g id="edge19" class="edge">
<title>FilesS3PresignedService&#45;&gt;FilesS3PresignedModule</title>
<path fill="none" stroke="black" d="M928.86,-180C925.21,-180 923.1,-180 923.1,-180 923.1,-180 923.1,-132.01 923.1,-132.01"/>
<polygon fill="black" stroke="black" points="926.6,-132.01 923.1,-122.01 919.6,-132.01 926.6,-132.01"/>
</g>
<!-- PaginationService -->
<g id="node25" class="node">
<title>PaginationService</title>
<ellipse fill="#fdb462" stroke="black" cx="994" cy="-332" rx="81.1" ry="18"/>
<text text-anchor="middle" x="994" y="-327.8" font-family="Times,serif" font-size="14.00">PaginationService</text>
</g>
<!-- PaginationService&#45;&gt;HelperModule -->
<g id="edge23" class="edge">
<title>PaginationService&#45;&gt;HelperModule</title>
<path fill="none" stroke="black" d="M919.82,-324.62C919.82,-316.93 919.82,-306 919.82,-306 919.82,-306 715.82,-306 715.82,-306 715.82,-306 715.82,-284.05 715.82,-284.05"/>
<polygon fill="black" stroke="black" points="719.32,-284.05 715.82,-274.05 712.32,-284.05 719.32,-284.05"/>
</g>
<!-- PrismaService -->
<g id="node26" class="node">
<title>PrismaService</title>
<ellipse fill="#fdb462" stroke="black" cx="828" cy="-332" rx="66.63" ry="18"/>
<text text-anchor="middle" x="828" y="-327.8" font-family="Times,serif" font-size="14.00">PrismaService</text>
</g>
<!-- PrismaService&#45;&gt;HelperModule -->
<g id="edge24" class="edge">
<title>PrismaService&#45;&gt;HelperModule</title>
<path fill="none" stroke="black" d="M761.04,-332C738.2,-332 718.32,-332 718.32,-332 718.32,-332 718.32,-284.01 718.32,-284.01"/>
<polygon fill="black" stroke="black" points="721.82,-284.01 718.32,-274.01 714.82,-284.01 721.82,-284.01"/>
</g>
<!-- HomeService -->
<g id="node27" class="node">
<title>HomeService</title>
<ellipse fill="#fdb462" stroke="black" cx="292" cy="-104" rx="63.68" ry="18"/>
<text text-anchor="middle" x="292" y="-99.8" font-family="Times,serif" font-size="14.00">HomeService</text>
</g>
<!-- HomeService&#45;&gt;HomeModule -->
<g id="edge25" class="edge">
<title>HomeService&#45;&gt;HomeModule</title>
<path fill="none" stroke="black" d="M300,-122.01C300,-122.01 300,-151.85 300,-151.85"/>
<polygon fill="black" stroke="black" points="296.5,-151.85 300,-161.85 303.5,-151.85 296.5,-151.85"/>
</g>
</g>
</svg>
