<?xml version="1.0" encoding="UTF-8" standalone="no"?>
<!DOCTYPE svg PUBLIC "-//W3C//DTD SVG 1.1//EN"
 "http://www.w3.org/Graphics/SVG/1.1/DTD/svg11.dtd">
<!-- Generated by graphviz version 2.47.0 (20210316.0004)
 -->
<!-- Title: dependencies Pages: 1 -->
<svg width="3950pt" height="382pt"
 viewBox="0.00 0.00 3950.00 382.00" xmlns="http://www.w3.org/2000/svg" xmlns:xlink="http://www.w3.org/1999/xlink">
<g id="graph0" class="graph" transform="scale(1 1) rotate(0) translate(4 378)">
<title>dependencies</title>
<polygon fill="white" stroke="transparent" points="-4,4 -4,-378 3946,-378 3946,4 -4,4"/>
<text text-anchor="start" x="1950.01" y="-42.4" font-family="Times-12" font-weight="bold" font-size="14.00">Legend</text>
<polygon fill="#ffffb3" stroke="transparent" points="1737,-10 1737,-30 1757,-30 1757,-10 1737,-10"/>
<text text-anchor="start" x="1760.63" y="-15.4" font-family="Times-12" font-size="14.00"> &#160;Declarations</text>
<polygon fill="#8dd3c7" stroke="transparent" points="1850,-10 1850,-30 1870,-30 1870,-10 1850,-10"/>
<text text-anchor="start" x="1873.73" y="-15.4" font-family="Times-12" font-size="14.00"> &#160;Module</text>
<polygon fill="#80b1d3" stroke="transparent" points="1936,-10 1936,-30 1956,-30 1956,-10 1936,-10"/>
<text text-anchor="start" x="1959.78" y="-15.4" font-family="Times-12" font-size="14.00"> &#160;Bootstrap</text>
<polygon fill="#fdb462" stroke="transparent" points="2033,-10 2033,-30 2053,-30 2053,-10 2033,-10"/>
<text text-anchor="start" x="2056.67" y="-15.4" font-family="Times-12" font-size="14.00"> &#160;Providers</text>
<polygon fill="#fb8072" stroke="transparent" points="2129,-10 2129,-30 2149,-30 2149,-10 2129,-10"/>
<text text-anchor="start" x="2152.73" y="-15.4" font-family="Times-12" font-size="14.00"> &#160;Exports</text>
<g id="clust1" class="cluster">
<title>cluster_AddressTypeModule</title>
<polygon fill="none" stroke="black" stroke-dasharray="1,5" points="8,-70 8,-290 222,-290 222,-70 8,-70"/>
</g>
<g id="clust4" class="cluster">
<title>cluster_AddressTypeModule_exports</title>
<polygon fill="none" stroke="black" points="50,-230 50,-282 202,-282 202,-230 50,-230"/>
</g>
<g id="clust6" class="cluster">
<title>cluster_AddressTypeModule_providers</title>
<polygon fill="none" stroke="black" points="16,-78 16,-130 214,-130 214,-78 16,-78"/>
</g>
<g id="clust7" class="cluster">
<title>cluster_ApiModule</title>
<polygon fill="none" stroke="black" stroke-dasharray="1,5" points="279,-146 279,-282 1672,-282 1672,-146 279,-146"/>
</g>
<g id="clust9" class="cluster">
<title>cluster_ApiModule_imports</title>
<polygon fill="none" stroke="black" points="287,-154 287,-206 1664,-206 1664,-154 287,-154"/>
</g>
<g id="clust13" class="cluster">
<title>cluster_AppModule</title>
<polygon fill="none" stroke="black" stroke-dasharray="1,5" points="1680,-222 1680,-358 1810,-358 1810,-222 1680,-222"/>
</g>
<g id="clust15" class="cluster">
<title>cluster_AppModule_imports</title>
<polygon fill="none" stroke="black" points="1688,-230 1688,-282 1802,-282 1802,-230 1688,-230"/>
</g>
<g id="clust19" class="cluster">
<title>cluster_BankModule</title>
<polygon fill="none" stroke="black" stroke-dasharray="1,5" points="1818,-222 1818,-290 2086,-290 2086,-222 1818,-222"/>
</g>
<g id="clust22" class="cluster">
<title>cluster_BankModule_exports</title>
<polygon fill="none" stroke="black" points="1970,-230 1970,-282 2078,-282 2078,-230 1970,-230"/>
</g>
<g id="clust24" class="cluster">
<title>cluster_BankModule_providers</title>
<polygon fill="none" stroke="black" points="1826,-230 1826,-282 1962,-282 1962,-230 1826,-230"/>
</g>
<g id="clust25" class="cluster">
<title>cluster_CityModule</title>
<polygon fill="none" stroke="black" stroke-dasharray="1,5" points="2094,-222 2094,-290 2350,-290 2350,-222 2094,-222"/>
</g>
<g id="clust28" class="cluster">
<title>cluster_CityModule_exports</title>
<polygon fill="none" stroke="black" points="2240,-230 2240,-282 2342,-282 2342,-230 2240,-230"/>
</g>
<g id="clust30" class="cluster">
<title>cluster_CityModule_providers</title>
<polygon fill="none" stroke="black" points="2102,-230 2102,-282 2232,-282 2232,-230 2102,-230"/>
</g>
<g id="clust31" class="cluster">
<title>cluster_ContactModule</title>
<polygon fill="none" stroke="black" stroke-dasharray="1,5" points="230,-70 230,-138 402,-138 402,-70 230,-70"/>
</g>
<g id="clust36" class="cluster">
<title>cluster_ContactModule_providers</title>
<polygon fill="none" stroke="black" points="238,-78 238,-130 394,-130 394,-78 238,-78"/>
</g>
<g id="clust37" class="cluster">
<title>cluster_CountriesModule</title>
<polygon fill="none" stroke="black" stroke-dasharray="1,5" points="2358,-222 2358,-290 2686,-290 2686,-222 2358,-222"/>
</g>
<g id="clust40" class="cluster">
<title>cluster_CountriesModule_exports</title>
<polygon fill="none" stroke="black" points="2546,-230 2546,-282 2678,-282 2678,-230 2546,-230"/>
</g>
<g id="clust42" class="cluster">
<title>cluster_CountriesModule_providers</title>
<polygon fill="none" stroke="black" points="2366,-230 2366,-282 2538,-282 2538,-230 2366,-230"/>
</g>
<g id="clust49" class="cluster">
<title>cluster_CurrenciesModule</title>
<polygon fill="none" stroke="black" stroke-dasharray="1,5" points="410,-70 410,-138 606,-138 606,-70 410,-70"/>
</g>
<g id="clust54" class="cluster">
<title>cluster_CurrenciesModule_providers</title>
<polygon fill="none" stroke="black" points="418,-78 418,-130 598,-130 598,-78 418,-78"/>
</g>
<g id="clust55" class="cluster">
<title>cluster_DocumentGroupModule</title>
<polygon fill="none" stroke="black" stroke-dasharray="1,5" points="2694,-222 2694,-290 3116,-290 3116,-222 2694,-222"/>
</g>
<g id="clust58" class="cluster">
<title>cluster_DocumentGroupModule_exports</title>
<polygon fill="none" stroke="black" points="2936,-230 2936,-282 3108,-282 3108,-230 2936,-230"/>
</g>
<g id="clust60" class="cluster">
<title>cluster_DocumentGroupModule_providers</title>
<polygon fill="none" stroke="black" points="2702,-230 2702,-282 2928,-282 2928,-230 2702,-230"/>
</g>
<g id="clust61" class="cluster">
<title>cluster_DocumentModule</title>
<polygon fill="none" stroke="black" stroke-dasharray="1,5" points="3124,-222 3124,-290 3460,-290 3460,-222 3124,-222"/>
</g>
<g id="clust64" class="cluster">
<title>cluster_DocumentModule_exports</title>
<polygon fill="none" stroke="black" points="3316,-230 3316,-282 3452,-282 3452,-230 3316,-230"/>
</g>
<g id="clust66" class="cluster">
<title>cluster_DocumentModule_providers</title>
<polygon fill="none" stroke="black" points="3132,-230 3132,-282 3308,-282 3308,-230 3132,-230"/>
</g>
<g id="clust67" class="cluster">
<title>cluster_FilesLocalModule</title>
<polygon fill="none" stroke="black" stroke-dasharray="1,5" points="3740,-70 3740,-290 3934,-290 3934,-70 3740,-70"/>
</g>
<g id="clust70" class="cluster">
<title>cluster_FilesLocalModule_exports</title>
<polygon fill="none" stroke="black" points="3769,-230 3769,-282 3905,-282 3905,-230 3769,-230"/>
</g>
<g id="clust72" class="cluster">
<title>cluster_FilesLocalModule_providers</title>
<polygon fill="none" stroke="black" points="3748,-78 3748,-130 3926,-130 3926,-78 3748,-78"/>
</g>
<g id="clust73" class="cluster">
<title>cluster_FilesModule</title>
<polygon fill="none" stroke="black" stroke-dasharray="1,5" points="1097,-70 1097,-138 1659,-138 1659,-70 1097,-70"/>
</g>
<g id="clust75" class="cluster">
<title>cluster_FilesModule_imports</title>
<polygon fill="none" stroke="black" points="1359,-78 1359,-130 1651,-130 1651,-78 1359,-78"/>
</g>
<g id="clust76" class="cluster">
<title>cluster_FilesModule_exports</title>
<polygon fill="none" stroke="black" points="1247,-78 1247,-130 1351,-130 1351,-78 1247,-78"/>
</g>
<g id="clust78" class="cluster">
<title>cluster_FilesModule_providers</title>
<polygon fill="none" stroke="black" points="1105,-78 1105,-130 1239,-130 1239,-78 1105,-78"/>
</g>
<g id="clust79" class="cluster">
<title>cluster_FilesS3Module</title>
<polygon fill="none" stroke="black" stroke-dasharray="1,5" points="1680,-146 1680,-214 1978,-214 1978,-146 1680,-146"/>
</g>
<g id="clust82" class="cluster">
<title>cluster_FilesS3Module_exports</title>
<polygon fill="none" stroke="black" points="1850,-154 1850,-206 1970,-206 1970,-154 1850,-154"/>
</g>
<g id="clust84" class="cluster">
<title>cluster_FilesS3Module_providers</title>
<polygon fill="none" stroke="black" points="1688,-154 1688,-206 1842,-206 1842,-154 1688,-154"/>
</g>
<g id="clust85" class="cluster">
<title>cluster_FilesS3PresignedModule</title>
<polygon fill="none" stroke="black" stroke-dasharray="1,5" points="1986,-146 1986,-214 2414,-214 2414,-146 1986,-146"/>
</g>
<g id="clust88" class="cluster">
<title>cluster_FilesS3PresignedModule_exports</title>
<polygon fill="none" stroke="black" points="2232,-154 2232,-206 2406,-206 2406,-154 2232,-154"/>
</g>
<g id="clust90" class="cluster">
<title>cluster_FilesS3PresignedModule_providers</title>
<polygon fill="none" stroke="black" points="1994,-154 1994,-206 2224,-206 2224,-154 1994,-154"/>
</g>
<g id="clust91" class="cluster">
<title>cluster_HelperModule</title>
<polygon fill="none" stroke="black" stroke-dasharray="1,5" points="1818,-298 1818,-366 2666,-366 2666,-298 1818,-298"/>
</g>
<g id="clust94" class="cluster">
<title>cluster_HelperModule_exports</title>
<polygon fill="none" stroke="black" points="2164,-306 2164,-358 2658,-358 2658,-306 2164,-306"/>
</g>
<g id="clust96" class="cluster">
<title>cluster_HelperModule_providers</title>
<polygon fill="none" stroke="black" points="1826,-306 1826,-358 2156,-358 2156,-306 1826,-306"/>
</g>
<g id="clust97" class="cluster">
<title>cluster_HomeModule</title>
<polygon fill="none" stroke="black" stroke-dasharray="1,5" points="614,-70 614,-138 774,-138 774,-70 614,-70"/>
</g>
<g id="clust102" class="cluster">
<title>cluster_HomeModule_providers</title>
<polygon fill="none" stroke="black" points="622,-78 622,-130 766,-130 766,-78 622,-78"/>
</g>
<g id="clust103" class="cluster">
<title>cluster_StateModule</title>
<polygon fill="none" stroke="black" stroke-dasharray="1,5" points="3468,-222 3468,-290 3732,-290 3732,-222 3468,-222"/>
</g>
<g id="clust106" class="cluster">
<title>cluster_StateModule_exports</title>
<polygon fill="none" stroke="black" points="3618,-230 3618,-282 3724,-282 3724,-230 3618,-230"/>
</g>
<g id="clust108" class="cluster">
<title>cluster_StateModule_providers</title>
<polygon fill="none" stroke="black" points="3476,-230 3476,-282 3610,-282 3610,-230 3476,-230"/>
</g>
<!-- AddressTypeService  -->
<g id="node1" class="node">
<title>AddressTypeService </title>
<polygon fill="#fb8072" stroke="black" points="194.12,-274 57.88,-274 57.88,-238 194.12,-238 194.12,-274"/>
<text text-anchor="middle" x="126" y="-251.8" font-family="Times,serif" font-size="14.00">AddressTypeService </text>
</g>
<!-- AddressTypeModule -->
<g id="node2" class="node">
<title>AddressTypeModule</title>
<polygon fill="#8dd3c7" stroke="black" points="193.19,-198 190.19,-202 169.19,-202 166.19,-198 58.81,-198 58.81,-162 193.19,-162 193.19,-198"/>
<text text-anchor="middle" x="126" y="-175.8" font-family="Times,serif" font-size="14.00">AddressTypeModule</text>
</g>
<!-- AddressTypeModule&#45;&gt;AddressTypeService  -->
<g id="edge1" class="edge">
<title>AddressTypeModule&#45;&gt;AddressTypeService </title>
<path fill="none" stroke="black" stroke-dasharray="5,2" d="M126,-198.01C126,-198.01 126,-227.85 126,-227.85"/>
<polygon fill="black" stroke="black" points="122.5,-227.85 126,-237.85 129.5,-227.85 122.5,-227.85"/>
</g>
<!-- ApiModule -->
<g id="node15" class="node">
<title>ApiModule</title>
<polygon fill="#8dd3c7" stroke="black" points="960.05,-274 957.05,-278 936.05,-278 933.05,-274 879.95,-274 879.95,-238 960.05,-238 960.05,-274"/>
<text text-anchor="middle" x="920" y="-251.8" font-family="Times,serif" font-size="14.00">ApiModule</text>
</g>
<!-- AddressTypeModule&#45;&gt;ApiModule -->
<g id="edge3" class="edge">
<title>AddressTypeModule&#45;&gt;ApiModule</title>
<path fill="none" stroke="black" d="M193.13,-180C211.39,-180 226.22,-180 226.22,-180 226.22,-180 226.22,-269 226.22,-269 226.22,-269 869.7,-269 869.7,-269"/>
<polygon fill="black" stroke="black" points="869.7,-272.5 879.7,-269 869.7,-265.5 869.7,-272.5"/>
</g>
<!-- AddressTypeService -->
<g id="node3" class="node">
<title>AddressTypeService</title>
<ellipse fill="#fdb462" stroke="black" cx="115" cy="-104" rx="91.45" ry="18"/>
<text text-anchor="middle" x="115" y="-99.8" font-family="Times,serif" font-size="14.00">AddressTypeService</text>
</g>
<!-- AddressTypeService&#45;&gt;AddressTypeModule -->
<g id="edge2" class="edge">
<title>AddressTypeService&#45;&gt;AddressTypeModule</title>
<path fill="none" stroke="black" d="M126,-122.01C126,-122.01 126,-151.85 126,-151.85"/>
<polygon fill="black" stroke="black" points="122.5,-151.85 126,-161.85 129.5,-151.85 122.5,-151.85"/>
</g>
<!-- BankModule -->
<g id="node4" class="node">
<title>BankModule</title>
<polygon fill="#8dd3c7" stroke="black" points="860.6,-198 857.6,-202 836.6,-202 833.6,-198 771.4,-198 771.4,-162 860.6,-162 860.6,-198"/>
<text text-anchor="middle" x="816" y="-175.8" font-family="Times,serif" font-size="14.00">BankModule</text>
</g>
<!-- BankModule&#45;&gt;ApiModule -->
<g id="edge4" class="edge">
<title>BankModule&#45;&gt;ApiModule</title>
<path fill="none" stroke="black" d="M838.28,-198.17C838.28,-217.09 838.28,-244 838.28,-244 838.28,-244 869.62,-244 869.62,-244"/>
<polygon fill="black" stroke="black" points="869.62,-247.5 879.62,-244 869.62,-240.5 869.62,-247.5"/>
</g>
<!-- BankService  -->
<g id="node18" class="node">
<title>BankService </title>
<polygon fill="#fb8072" stroke="black" points="2069.53,-274 1978.47,-274 1978.47,-238 2069.53,-238 2069.53,-274"/>
<text text-anchor="middle" x="2024" y="-251.8" font-family="Times,serif" font-size="14.00">BankService </text>
</g>
<!-- BankModule&#45;&gt;BankService  -->
<g id="edge17" class="edge">
<title>BankModule&#45;&gt;BankService </title>
<path fill="none" stroke="black" stroke-dasharray="5,2" d="M793.72,-198.24C793.72,-213.57 793.72,-233 793.72,-233 793.72,-233 1990.22,-233 1990.22,-233 1990.22,-233 1990.22,-233.49 1990.22,-233.49"/>
<polygon fill="black" stroke="black" points="1986.72,-227.88 1990.22,-237.88 1993.72,-227.88 1986.72,-227.88"/>
</g>
<!-- CityModule -->
<g id="node5" class="node">
<title>CityModule</title>
<polygon fill="#8dd3c7" stroke="black" points="961.67,-198 958.67,-202 937.67,-202 934.67,-198 878.33,-198 878.33,-162 961.67,-162 961.67,-198"/>
<text text-anchor="middle" x="920" y="-175.8" font-family="Times,serif" font-size="14.00">CityModule</text>
</g>
<!-- CityModule&#45;&gt;ApiModule -->
<g id="edge5" class="edge">
<title>CityModule&#45;&gt;ApiModule</title>
<path fill="none" stroke="black" d="M899.86,-198.01C899.86,-198.01 899.86,-227.85 899.86,-227.85"/>
<polygon fill="black" stroke="black" points="896.36,-227.85 899.86,-237.85 903.36,-227.85 896.36,-227.85"/>
</g>
<!-- CityService  -->
<g id="node20" class="node">
<title>CityService </title>
<polygon fill="#fb8072" stroke="black" points="2333.6,-274 2248.4,-274 2248.4,-238 2333.6,-238 2333.6,-274"/>
<text text-anchor="middle" x="2291" y="-251.8" font-family="Times,serif" font-size="14.00">CityService </text>
</g>
<!-- CityModule&#45;&gt;CityService  -->
<g id="edge19" class="edge">
<title>CityModule&#45;&gt;CityService </title>
<path fill="none" stroke="black" stroke-dasharray="5,2" d="M920,-198.15C920,-211.74 920,-228 920,-228 920,-228 2291,-228 2291,-228 2291,-228 2291,-228.98 2291,-228.98"/>
<polygon fill="black" stroke="black" points="2287.5,-227.79 2291,-237.79 2294.5,-227.79 2287.5,-227.79"/>
</g>
<!-- ContactModule -->
<g id="node6" class="node">
<title>ContactModule</title>
<polygon fill="#8dd3c7" stroke="black" points="398.6,-198 395.6,-202 374.6,-202 371.6,-198 295.4,-198 295.4,-162 398.6,-162 398.6,-198"/>
<text text-anchor="middle" x="347" y="-175.8" font-family="Times,serif" font-size="14.00">ContactModule</text>
</g>
<!-- ContactModule&#45;&gt;ApiModule -->
<g id="edge6" class="edge">
<title>ContactModule&#45;&gt;ApiModule</title>
<path fill="none" stroke="black" d="M347,-198.23C347,-222.93 347,-264 347,-264 347,-264 869.71,-264 869.71,-264"/>
<polygon fill="black" stroke="black" points="869.71,-267.5 879.71,-264 869.71,-260.5 869.71,-267.5"/>
</g>
<!-- CountriesModule -->
<g id="node7" class="node">
<title>CountriesModule</title>
<polygon fill="#8dd3c7" stroke="black" points="1241.99,-198 1238.99,-202 1217.99,-202 1214.99,-198 1128.01,-198 1128.01,-162 1241.99,-162 1241.99,-198"/>
<text text-anchor="middle" x="1185" y="-175.8" font-family="Times,serif" font-size="14.00">CountriesModule</text>
</g>
<!-- CountriesModule&#45;&gt;ApiModule -->
<g id="edge7" class="edge">
<title>CountriesModule&#45;&gt;ApiModule</title>
<path fill="none" stroke="black" d="M1213.5,-198.03C1213.5,-218.77 1213.5,-250 1213.5,-250 1213.5,-250 970.19,-250 970.19,-250"/>
<polygon fill="black" stroke="black" points="970.19,-246.5 960.19,-250 970.19,-253.5 970.19,-246.5"/>
</g>
<!-- CountriesService  -->
<g id="node23" class="node">
<title>CountriesService </title>
<polygon fill="#fb8072" stroke="black" points="2669.92,-274 2554.08,-274 2554.08,-238 2669.92,-238 2669.92,-274"/>
<text text-anchor="middle" x="2612" y="-251.8" font-family="Times,serif" font-size="14.00">CountriesService </text>
</g>
<!-- CountriesModule&#45;&gt;CountriesService  -->
<g id="edge22" class="edge">
<title>CountriesModule&#45;&gt;CountriesService </title>
<path fill="none" stroke="black" stroke-dasharray="5,2" d="M1156.5,-198.07C1156.5,-207.46 1156.5,-217 1156.5,-217 1156.5,-217 2631.32,-217 2631.32,-217 2631.32,-217 2631.32,-227.87 2631.32,-227.87"/>
<polygon fill="black" stroke="black" points="2627.82,-227.87 2631.32,-237.87 2634.82,-227.87 2627.82,-227.87"/>
</g>
<!-- CountryMasModule -->
<g id="node8" class="node">
<title>CountryMasModule</title>
<polygon fill="#8dd3c7" stroke="black" points="1109.54,-198 1106.54,-202 1085.54,-202 1082.54,-198 980.46,-198 980.46,-162 1109.54,-162 1109.54,-198"/>
<text text-anchor="middle" x="1045" y="-175.8" font-family="Times,serif" font-size="14.00">CountryMasModule</text>
</g>
<!-- CountryMasModule&#45;&gt;ApiModule -->
<g id="edge8" class="edge">
<title>CountryMasModule&#45;&gt;ApiModule</title>
<path fill="none" stroke="black" d="M1077.39,-198.17C1077.39,-217.09 1077.39,-244 1077.39,-244 1077.39,-244 970.12,-244 970.12,-244"/>
<polygon fill="black" stroke="black" points="970.12,-240.5 960.12,-244 970.12,-247.5 970.12,-240.5"/>
</g>
<!-- CountryMasModule&#45;&gt;CountriesService  -->
<g id="edge24" class="edge">
<title>CountryMasModule&#45;&gt;CountriesService </title>
<path fill="none" stroke="black" stroke-dasharray="5,2" d="M1012.61,-198.13C1012.61,-208.71 1012.61,-220 1012.61,-220 1012.61,-220 2592.68,-220 2592.68,-220 2592.68,-220 2592.68,-227.58 2592.68,-227.58"/>
<polygon fill="black" stroke="black" points="2589.18,-227.58 2592.68,-237.58 2596.18,-227.58 2589.18,-227.58"/>
</g>
<!-- CurrenciesModule -->
<g id="node9" class="node">
<title>CurrenciesModule</title>
<polygon fill="#8dd3c7" stroke="black" points="537.19,-198 534.19,-202 513.19,-202 510.19,-198 416.81,-198 416.81,-162 537.19,-162 537.19,-198"/>
<text text-anchor="middle" x="477" y="-175.8" font-family="Times,serif" font-size="14.00">CurrenciesModule</text>
</g>
<!-- CurrenciesModule&#45;&gt;ApiModule -->
<g id="edge9" class="edge">
<title>CurrenciesModule&#45;&gt;ApiModule</title>
<path fill="none" stroke="black" d="M477,-198.32C477,-221.66 477,-259 477,-259 477,-259 869.91,-259 869.91,-259"/>
<polygon fill="black" stroke="black" points="869.91,-262.5 879.91,-259 869.91,-255.5 869.91,-262.5"/>
</g>
<!-- DocumentGroupModule -->
<g id="node10" class="node">
<title>DocumentGroupModule</title>
<polygon fill="#8dd3c7" stroke="black" points="1413.63,-198 1410.63,-202 1389.63,-202 1386.63,-198 1260.37,-198 1260.37,-162 1413.63,-162 1413.63,-198"/>
<text text-anchor="middle" x="1337" y="-175.8" font-family="Times,serif" font-size="14.00">DocumentGroupModule</text>
</g>
<!-- DocumentGroupModule&#45;&gt;ApiModule -->
<g id="edge10" class="edge">
<title>DocumentGroupModule&#45;&gt;ApiModule</title>
<path fill="none" stroke="black" d="M1375.41,-198.01C1375.41,-220.49 1375.41,-256 1375.41,-256 1375.41,-256 970.41,-256 970.41,-256"/>
<polygon fill="black" stroke="black" points="970.41,-252.5 960.41,-256 970.41,-259.5 970.41,-252.5"/>
</g>
<!-- DocumentGroupService  -->
<g id="node26" class="node">
<title>DocumentGroupService </title>
<polygon fill="#fb8072" stroke="black" points="3099.56,-274 2944.44,-274 2944.44,-238 3099.56,-238 3099.56,-274"/>
<text text-anchor="middle" x="3022" y="-251.8" font-family="Times,serif" font-size="14.00">DocumentGroupService </text>
</g>
<!-- DocumentGroupModule&#45;&gt;DocumentGroupService  -->
<g id="edge27" class="edge">
<title>DocumentGroupModule&#45;&gt;DocumentGroupService </title>
<path fill="none" stroke="black" stroke-dasharray="5,2" d="M1298.59,-198.24C1298.59,-205.43 1298.59,-212 1298.59,-212 1298.59,-212 3022,-212 3022,-212 3022,-212 3022,-227.85 3022,-227.85"/>
<polygon fill="black" stroke="black" points="3018.5,-227.85 3022,-237.85 3025.5,-227.85 3018.5,-227.85"/>
</g>
<!-- DocumentModule -->
<g id="node11" class="node">
<title>DocumentModule</title>
<polygon fill="#8dd3c7" stroke="black" points="1549.87,-198 1546.87,-202 1525.87,-202 1522.87,-198 1432.13,-198 1432.13,-162 1549.87,-162 1549.87,-198"/>
<text text-anchor="middle" x="1491" y="-175.8" font-family="Times,serif" font-size="14.00">DocumentModule</text>
</g>
<!-- DocumentModule&#45;&gt;ApiModule -->
<g id="edge11" class="edge">
<title>DocumentModule&#45;&gt;ApiModule</title>
<path fill="none" stroke="black" d="M1520.47,-198.2C1520.47,-222.36 1520.47,-262 1520.47,-262 1520.47,-262 970.33,-262 970.33,-262"/>
<polygon fill="black" stroke="black" points="970.33,-258.5 960.33,-262 970.33,-265.5 970.33,-258.5"/>
</g>
<!-- DocumentService  -->
<g id="node28" class="node">
<title>DocumentService </title>
<polygon fill="#fb8072" stroke="black" points="3443.79,-274 3324.21,-274 3324.21,-238 3443.79,-238 3443.79,-274"/>
<text text-anchor="middle" x="3384" y="-251.8" font-family="Times,serif" font-size="14.00">DocumentService </text>
</g>
<!-- DocumentModule&#45;&gt;DocumentService  -->
<g id="edge29" class="edge">
<title>DocumentModule&#45;&gt;DocumentService </title>
<path fill="none" stroke="black" stroke-dasharray="5,2" d="M1461.53,-198.06C1461.53,-202.49 1461.53,-206 1461.53,-206 1461.53,-206 3384,-206 3384,-206 3384,-206 3384,-227.95 3384,-227.95"/>
<polygon fill="black" stroke="black" points="3380.5,-227.95 3384,-237.95 3387.5,-227.95 3380.5,-227.95"/>
</g>
<!-- FilesModule -->
<g id="node12" class="node">
<title>FilesModule</title>
<polygon fill="#8dd3c7" stroke="black" points="753.27,-198 750.27,-202 729.27,-202 726.27,-198 666.73,-198 666.73,-162 753.27,-162 753.27,-198"/>
<text text-anchor="middle" x="710" y="-175.8" font-family="Times,serif" font-size="14.00">FilesModule</text>
</g>
<!-- FilesModule&#45;&gt;ApiModule -->
<g id="edge12" class="edge">
<title>FilesModule&#45;&gt;ApiModule</title>
<path fill="none" stroke="black" d="M710,-198.13C710,-218.57 710,-249 710,-249 710,-249 869.51,-249 869.51,-249"/>
<polygon fill="black" stroke="black" points="869.51,-252.5 879.51,-249 869.51,-245.5 869.51,-252.5"/>
</g>
<!-- FilesService  -->
<g id="node35" class="node">
<title>FilesService </title>
<polygon fill="#fb8072" stroke="black" points="1343.2,-122 1254.8,-122 1254.8,-86 1343.2,-86 1343.2,-122"/>
<text text-anchor="middle" x="1299" y="-99.8" font-family="Times,serif" font-size="14.00">FilesService </text>
</g>
<!-- FilesModule&#45;&gt;FilesService  -->
<g id="edge35" class="edge">
<title>FilesModule&#45;&gt;FilesService </title>
<path fill="none" stroke="black" stroke-dasharray="5,2" d="M731.69,-161.88C731.69,-147.22 731.69,-129 731.69,-129 731.69,-129 1301.77,-129 1301.77,-129 1301.77,-129 1301.77,-128.32 1301.77,-128.32"/>
<polygon fill="black" stroke="black" points="1305.27,-132.17 1301.77,-122.17 1298.27,-132.17 1305.27,-132.17"/>
</g>
<!-- HomeModule -->
<g id="node13" class="node">
<title>HomeModule</title>
<polygon fill="#8dd3c7" stroke="black" points="648.76,-198 645.76,-202 624.76,-202 621.76,-198 555.24,-198 555.24,-162 648.76,-162 648.76,-198"/>
<text text-anchor="middle" x="602" y="-175.8" font-family="Times,serif" font-size="14.00">HomeModule</text>
</g>
<!-- HomeModule&#45;&gt;ApiModule -->
<g id="edge13" class="edge">
<title>HomeModule&#45;&gt;ApiModule</title>
<path fill="none" stroke="black" d="M602,-198.29C602,-220.21 602,-254 602,-254 602,-254 869.73,-254 869.73,-254"/>
<polygon fill="black" stroke="black" points="869.73,-257.5 879.73,-254 869.73,-250.5 869.73,-257.5"/>
</g>
<!-- StateModule -->
<g id="node14" class="node">
<title>StateModule</title>
<polygon fill="#8dd3c7" stroke="black" points="1655.54,-198 1652.54,-202 1631.54,-202 1628.54,-198 1568.46,-198 1568.46,-162 1655.54,-162 1655.54,-198"/>
<text text-anchor="middle" x="1612" y="-175.8" font-family="Times,serif" font-size="14.00">StateModule</text>
</g>
<!-- StateModule&#45;&gt;ApiModule -->
<g id="edge14" class="edge">
<title>StateModule&#45;&gt;ApiModule</title>
<path fill="none" stroke="black" d="M1633.89,-198.23C1633.89,-224.01 1633.89,-268 1633.89,-268 1633.89,-268 970.17,-268 970.17,-268"/>
<polygon fill="black" stroke="black" points="970.17,-264.5 960.17,-268 970.17,-271.5 970.17,-264.5"/>
</g>
<!-- StateService  -->
<g id="node48" class="node">
<title>StateService </title>
<polygon fill="#fb8072" stroke="black" points="3715.97,-274 3626.03,-274 3626.03,-238 3715.97,-238 3715.97,-274"/>
<text text-anchor="middle" x="3671" y="-251.8" font-family="Times,serif" font-size="14.00">StateService </text>
</g>
<!-- StateModule&#45;&gt;StateService  -->
<g id="edge48" class="edge">
<title>StateModule&#45;&gt;StateService </title>
<path fill="none" stroke="black" stroke-dasharray="5,2" d="M1590.11,-198.08C1590.11,-199.85 1590.11,-201 1590.11,-201 1590.11,-201 3671,-201 3671,-201 3671,-201 3671,-227.99 3671,-227.99"/>
<polygon fill="black" stroke="black" points="3667.5,-227.99 3671,-237.99 3674.5,-227.99 3667.5,-227.99"/>
</g>
<!-- AppModule -->
<g id="node17" class="node">
<title>AppModule</title>
<polygon fill="#8dd3c7" stroke="black" points="1778.66,-350 1775.66,-354 1754.66,-354 1751.66,-350 1695.34,-350 1695.34,-314 1778.66,-314 1778.66,-350"/>
<text text-anchor="middle" x="1737" y="-327.8" font-family="Times,serif" font-size="14.00">AppModule</text>
</g>
<!-- ApiModule&#45;&gt;AppModule -->
<g id="edge15" class="edge">
<title>ApiModule&#45;&gt;AppModule</title>
<path fill="none" stroke="black" d="M920,-274.01C920,-296.49 920,-332 920,-332 920,-332 1685.08,-332 1685.08,-332"/>
<polygon fill="black" stroke="black" points="1685.08,-335.5 1695.08,-332 1685.08,-328.5 1685.08,-335.5"/>
</g>
<!-- HelperModule -->
<g id="node16" class="node">
<title>HelperModule</title>
<polygon fill="#8dd3c7" stroke="black" points="1793.64,-274 1790.64,-278 1769.64,-278 1766.64,-274 1696.36,-274 1696.36,-238 1793.64,-238 1793.64,-274"/>
<text text-anchor="middle" x="1745" y="-251.8" font-family="Times,serif" font-size="14.00">HelperModule</text>
</g>
<!-- HelperModule&#45;&gt;AppModule -->
<g id="edge16" class="edge">
<title>HelperModule&#45;&gt;AppModule</title>
<path fill="none" stroke="black" d="M1737.5,-274.01C1737.5,-274.01 1737.5,-303.85 1737.5,-303.85"/>
<polygon fill="black" stroke="black" points="1734,-303.85 1737.5,-313.85 1741,-303.85 1734,-303.85"/>
</g>
<!-- CommonQuery5  -->
<g id="node41" class="node">
<title>CommonQuery5 </title>
<polygon fill="#fb8072" stroke="black" points="2424.6,-350 2311.4,-350 2311.4,-314 2424.6,-314 2424.6,-350"/>
<text text-anchor="middle" x="2368" y="-327.8" font-family="Times,serif" font-size="14.00">CommonQuery5 </text>
</g>
<!-- HelperModule&#45;&gt;CommonQuery5  -->
<g id="edge41" class="edge">
<title>HelperModule&#45;&gt;CommonQuery5 </title>
<path fill="none" stroke="black" stroke-dasharray="5,2" d="M1783.11,-274.11C1783.11,-283.9 1783.11,-294 1783.11,-294 1783.11,-294 2322.5,-294 2322.5,-294 2322.5,-294 2322.5,-303.89 2322.5,-303.89"/>
<polygon fill="black" stroke="black" points="2319,-303.89 2322.5,-313.89 2326,-303.89 2319,-303.89"/>
</g>
<!-- PaginationService  -->
<g id="node42" class="node">
<title>PaginationService </title>
<polygon fill="#fb8072" stroke="black" points="2293.86,-350 2172.14,-350 2172.14,-314 2293.86,-314 2293.86,-350"/>
<text text-anchor="middle" x="2233" y="-327.8" font-family="Times,serif" font-size="14.00">PaginationService </text>
</g>
<!-- HelperModule&#45;&gt;PaginationService  -->
<g id="edge42" class="edge">
<title>HelperModule&#45;&gt;PaginationService </title>
<path fill="none" stroke="black" stroke-dasharray="5,2" d="M1780.97,-274.04C1780.97,-286.56 1780.97,-301 1780.97,-301 1780.97,-301 2197.97,-301 2197.97,-301 2197.97,-301 2197.97,-303.97 2197.97,-303.97"/>
<polygon fill="black" stroke="black" points="2194.47,-303.97 2197.97,-313.97 2201.47,-303.97 2194.47,-303.97"/>
</g>
<!-- PrismaService  -->
<g id="node43" class="node">
<title>PrismaService </title>
<polygon fill="#fb8072" stroke="black" points="2650.36,-350 2549.64,-350 2549.64,-314 2650.36,-314 2650.36,-350"/>
<text text-anchor="middle" x="2600" y="-327.8" font-family="Times,serif" font-size="14.00">PrismaService </text>
</g>
<!-- HelperModule&#45;&gt;PrismaService  -->
<g id="edge43" class="edge">
<title>HelperModule&#45;&gt;PrismaService </title>
<path fill="none" stroke="black" stroke-dasharray="5,2" d="M1787.39,-274.17C1787.39,-278.05 1787.39,-281 1787.39,-281 1787.39,-281 2602.11,-281 2602.11,-281 2602.11,-281 2602.11,-303.88 2602.11,-303.88"/>
<polygon fill="black" stroke="black" points="2598.61,-303.88 2602.11,-313.88 2605.61,-303.88 2598.61,-303.88"/>
</g>
<!-- UtilsService  -->
<g id="node44" class="node">
<title>UtilsService </title>
<polygon fill="#fb8072" stroke="black" points="2531.2,-350 2442.8,-350 2442.8,-314 2531.2,-314 2531.2,-350"/>
<text text-anchor="middle" x="2487" y="-327.8" font-family="Times,serif" font-size="14.00">UtilsService </text>
</g>
<!-- HelperModule&#45;&gt;UtilsService  -->
<g id="edge44" class="edge">
<title>HelperModule&#45;&gt;UtilsService </title>
<path fill="none" stroke="black" stroke-dasharray="5,2" d="M1785.25,-274.24C1785.25,-281.43 1785.25,-288 1785.25,-288 1785.25,-288 2486.1,-288 2486.1,-288 2486.1,-288 2486.1,-303.85 2486.1,-303.85"/>
<polygon fill="black" stroke="black" points="2482.6,-303.85 2486.1,-313.85 2489.6,-303.85 2482.6,-303.85"/>
</g>
<!-- BankService -->
<g id="node19" class="node">
<title>BankService</title>
<ellipse fill="#fdb462" stroke="black" cx="1894" cy="-256" rx="60.25" ry="18"/>
<text text-anchor="middle" x="1894" y="-251.8" font-family="Times,serif" font-size="14.00">BankService</text>
</g>
<!-- BankService&#45;&gt;BankModule -->
<g id="edge18" class="edge">
<title>BankService&#45;&gt;BankModule</title>
<path fill="none" stroke="black" d="M1846.11,-244.6C1846.11,-240.11 1846.11,-236 1846.11,-236 1846.11,-236 816,-236 816,-236 816,-236 816,-208.03 816,-208.03"/>
<polygon fill="black" stroke="black" points="819.5,-208.03 816,-198.03 812.5,-208.03 819.5,-208.03"/>
</g>
<!-- CityService -->
<g id="node21" class="node">
<title>CityService</title>
<ellipse fill="#fdb462" stroke="black" cx="2167" cy="-256" rx="56.76" ry="18"/>
<text text-anchor="middle" x="2167" y="-251.8" font-family="Times,serif" font-size="14.00">CityService</text>
</g>
<!-- CityService&#45;&gt;CityModule -->
<g id="edge20" class="edge">
<title>CityService&#45;&gt;CityModule</title>
<path fill="none" stroke="black" d="M2163.21,-237.94C2163.21,-233.51 2163.21,-230 2163.21,-230 2163.21,-230 940.14,-230 940.14,-230 940.14,-230 940.14,-208.05 940.14,-208.05"/>
<polygon fill="black" stroke="black" points="943.64,-208.05 940.14,-198.05 936.64,-208.05 943.64,-208.05"/>
</g>
<!-- ContactService -->
<g id="node22" class="node">
<title>ContactService</title>
<ellipse fill="#fdb462" stroke="black" cx="316" cy="-104" rx="70.06" ry="18"/>
<text text-anchor="middle" x="316" y="-99.8" font-family="Times,serif" font-size="14.00">ContactService</text>
</g>
<!-- ContactService&#45;&gt;ContactModule -->
<g id="edge21" class="edge">
<title>ContactService&#45;&gt;ContactModule</title>
<path fill="none" stroke="black" d="M340.74,-120.87C340.74,-120.87 340.74,-151.85 340.74,-151.85"/>
<polygon fill="black" stroke="black" points="337.24,-151.85 340.74,-161.85 344.24,-151.85 337.24,-151.85"/>
</g>
<!-- CountriesService -->
<g id="node24" class="node">
<title>CountriesService</title>
<ellipse fill="#fdb462" stroke="black" cx="2452" cy="-256" rx="77.58" ry="18"/>
<text text-anchor="middle" x="2452" y="-251.8" font-family="Times,serif" font-size="14.00">CountriesService</text>
</g>
<!-- CountriesService&#45;&gt;CountriesModule -->
<g id="edge23" class="edge">
<title>CountriesService&#45;&gt;CountriesModule</title>
<path fill="none" stroke="black" d="M2390.38,-244.87C2390.38,-234.95 2390.38,-222 2390.38,-222 2390.38,-222 1185,-222 1185,-222 1185,-222 1185,-208.06 1185,-208.06"/>
<polygon fill="black" stroke="black" points="1188.5,-208.06 1185,-198.06 1181.5,-208.06 1188.5,-208.06"/>
</g>
<!-- CountriesService&#45;&gt;CountryMasModule -->
<g id="edge25" class="edge">
<title>CountriesService&#45;&gt;CountryMasModule</title>
<path fill="none" stroke="black" d="M2382.42,-247.86C2382.42,-238.67 2382.42,-225 2382.42,-225 2382.42,-225 1045,-225 1045,-225 1045,-225 1045,-208.04 1045,-208.04"/>
<polygon fill="black" stroke="black" points="1048.5,-208.04 1045,-198.04 1041.5,-208.04 1048.5,-208.04"/>
</g>
<!-- CurrenciesService -->
<g id="node25" class="node">
<title>CurrenciesService</title>
<ellipse fill="#fdb462" stroke="black" cx="508" cy="-104" rx="81.64" ry="18"/>
<text text-anchor="middle" x="508" y="-99.8" font-family="Times,serif" font-size="14.00">CurrenciesService</text>
</g>
<!-- CurrenciesService&#45;&gt;CurrenciesModule -->
<g id="edge26" class="edge">
<title>CurrenciesService&#45;&gt;CurrenciesModule</title>
<path fill="none" stroke="black" d="M481.64,-121.25C481.64,-121.25 481.64,-151.76 481.64,-151.76"/>
<polygon fill="black" stroke="black" points="478.14,-151.76 481.64,-161.76 485.14,-151.76 478.14,-151.76"/>
</g>
<!-- DocumentGroupService -->
<g id="node27" class="node">
<title>DocumentGroupService</title>
<ellipse fill="#fdb462" stroke="black" cx="2815" cy="-256" rx="104.78" ry="18"/>
<text text-anchor="middle" x="2815" y="-251.8" font-family="Times,serif" font-size="14.00">DocumentGroupService</text>
</g>
<!-- DocumentGroupService&#45;&gt;DocumentGroupModule -->
<g id="edge28" class="edge">
<title>DocumentGroupService&#45;&gt;DocumentGroupModule</title>
<path fill="none" stroke="black" d="M2815,-237.94C2815,-226.56 2815,-214 2815,-214 2815,-214 1337,-214 1337,-214 1337,-214 1337,-208.19 1337,-208.19"/>
<polygon fill="black" stroke="black" points="1340.5,-208.19 1337,-198.19 1333.5,-208.19 1340.5,-208.19"/>
</g>
<!-- DocumentService -->
<g id="node29" class="node">
<title>DocumentService</title>
<ellipse fill="#fdb462" stroke="black" cx="3220" cy="-256" rx="80.44" ry="18"/>
<text text-anchor="middle" x="3220" y="-251.8" font-family="Times,serif" font-size="14.00">DocumentService</text>
</g>
<!-- DocumentService&#45;&gt;DocumentModule -->
<g id="edge30" class="edge">
<title>DocumentService&#45;&gt;DocumentModule</title>
<path fill="none" stroke="black" d="M3220,-237.96C3220,-224.71 3220,-209 3220,-209 3220,-209 1491,-209 1491,-209 1491,-209 1491,-207.92 1491,-207.92"/>
<polygon fill="black" stroke="black" points="1494.5,-208.2 1491,-198.2 1487.5,-208.2 1494.5,-208.2"/>
</g>
<!-- FilesLocalService  -->
<g id="node30" class="node">
<title>FilesLocalService </title>
<polygon fill="#fb8072" stroke="black" points="3897.07,-274 3776.93,-274 3776.93,-238 3897.07,-238 3897.07,-274"/>
<text text-anchor="middle" x="3837" y="-251.8" font-family="Times,serif" font-size="14.00">FilesLocalService </text>
</g>
<!-- FilesLocalModule -->
<g id="node31" class="node">
<title>FilesLocalModule</title>
<polygon fill="#8dd3c7" stroke="black" points="3896.15,-198 3893.15,-202 3872.15,-202 3869.15,-198 3777.85,-198 3777.85,-162 3896.15,-162 3896.15,-198"/>
<text text-anchor="middle" x="3837" y="-175.8" font-family="Times,serif" font-size="14.00">FilesLocalModule</text>
</g>
<!-- FilesLocalModule&#45;&gt;FilesLocalService  -->
<g id="edge31" class="edge">
<title>FilesLocalModule&#45;&gt;FilesLocalService </title>
<path fill="none" stroke="black" stroke-dasharray="5,2" d="M3837,-198.01C3837,-198.01 3837,-227.85 3837,-227.85"/>
<polygon fill="black" stroke="black" points="3833.5,-227.85 3837,-237.85 3840.5,-227.85 3833.5,-227.85"/>
</g>
<!-- FilesLocalService -->
<g id="node32" class="node">
<title>FilesLocalService</title>
<ellipse fill="#fdb462" stroke="black" cx="3837" cy="-104" rx="80.51" ry="18"/>
<text text-anchor="middle" x="3837" y="-99.8" font-family="Times,serif" font-size="14.00">FilesLocalService</text>
</g>
<!-- FilesLocalService&#45;&gt;FilesLocalModule -->
<g id="edge32" class="edge">
<title>FilesLocalService&#45;&gt;FilesLocalModule</title>
<path fill="none" stroke="black" d="M3837,-122.01C3837,-122.01 3837,-151.85 3837,-151.85"/>
<polygon fill="black" stroke="black" points="3833.5,-151.85 3837,-161.85 3840.5,-151.85 3833.5,-151.85"/>
</g>
<!-- FilesS3Module -->
<g id="node33" class="node">
<title>FilesS3Module</title>
<polygon fill="#8dd3c7" stroke="black" points="1468.56,-122 1465.56,-126 1444.56,-126 1441.56,-122 1367.44,-122 1367.44,-86 1468.56,-86 1468.56,-122"/>
<text text-anchor="middle" x="1418" y="-99.8" font-family="Times,serif" font-size="14.00">FilesS3Module</text>
</g>
<!-- FilesS3Module&#45;&gt;FilesModule -->
<g id="edge33" class="edge">
<title>FilesS3Module&#45;&gt;FilesModule</title>
<path fill="none" stroke="black" d="M1390.52,-122.24C1390.52,-129.43 1390.52,-136 1390.52,-136 1390.52,-136 688.31,-136 688.31,-136 688.31,-136 688.31,-151.85 688.31,-151.85"/>
<polygon fill="black" stroke="black" points="684.81,-151.85 688.31,-161.85 691.81,-151.85 684.81,-151.85"/>
</g>
<!-- FilesS3Service  -->
<g id="node37" class="node">
<title>FilesS3Service </title>
<polygon fill="#fb8072" stroke="black" points="1961.98,-198 1858.02,-198 1858.02,-162 1961.98,-162 1961.98,-198"/>
<text text-anchor="middle" x="1910" y="-175.8" font-family="Times,serif" font-size="14.00">FilesS3Service </text>
</g>
<!-- FilesS3Module&#45;&gt;FilesS3Service  -->
<g id="edge37" class="edge">
<title>FilesS3Module&#45;&gt;FilesS3Service </title>
<path fill="none" stroke="black" stroke-dasharray="5,2" d="M1444.3,-122.04C1444.3,-134.56 1444.3,-149 1444.3,-149 1444.3,-149 1910,-149 1910,-149 1910,-149 1910,-151.97 1910,-151.97"/>
<polygon fill="black" stroke="black" points="1906.5,-151.97 1910,-161.97 1913.5,-151.97 1906.5,-151.97"/>
</g>
<!-- FilesS3PresignedModule -->
<g id="node34" class="node">
<title>FilesS3PresignedModule</title>
<polygon fill="#8dd3c7" stroke="black" points="1643.26,-122 1640.26,-126 1619.26,-126 1616.26,-122 1486.74,-122 1486.74,-86 1643.26,-86 1643.26,-122"/>
<text text-anchor="middle" x="1565" y="-99.8" font-family="Times,serif" font-size="14.00">FilesS3PresignedModule</text>
</g>
<!-- FilesS3PresignedModule&#45;&gt;FilesModule -->
<g id="edge34" class="edge">
<title>FilesS3PresignedModule&#45;&gt;FilesModule</title>
<path fill="none" stroke="black" d="M1518.28,-122.11C1518.28,-131.9 1518.28,-142 1518.28,-142 1518.28,-142 710,-142 710,-142 710,-142 710,-151.89 710,-151.89"/>
<polygon fill="black" stroke="black" points="706.5,-151.89 710,-161.89 713.5,-151.89 706.5,-151.89"/>
</g>
<!-- FilesS3PresignedService  -->
<g id="node39" class="node">
<title>FilesS3PresignedService </title>
<polygon fill="#fb8072" stroke="black" points="2398.19,-198 2239.81,-198 2239.81,-162 2398.19,-162 2398.19,-198"/>
<text text-anchor="middle" x="2319" y="-175.8" font-family="Times,serif" font-size="14.00">FilesS3PresignedService </text>
</g>
<!-- FilesS3PresignedModule&#45;&gt;FilesS3PresignedService  -->
<g id="edge39" class="edge">
<title>FilesS3PresignedModule&#45;&gt;FilesS3PresignedService </title>
<path fill="none" stroke="black" stroke-dasharray="5,2" d="M1643.56,-98C1836.68,-98 2319,-98 2319,-98 2319,-98 2319,-151.8 2319,-151.8"/>
<polygon fill="black" stroke="black" points="2315.5,-151.8 2319,-161.8 2322.5,-151.8 2315.5,-151.8"/>
</g>
<!-- FilesService -->
<g id="node36" class="node">
<title>FilesService</title>
<ellipse fill="#fdb462" stroke="black" cx="1172" cy="-104" rx="58.54" ry="18"/>
<text text-anchor="middle" x="1172" y="-99.8" font-family="Times,serif" font-size="14.00">FilesService</text>
</g>
<!-- FilesService&#45;&gt;FilesModule -->
<g id="edge36" class="edge">
<title>FilesService&#45;&gt;FilesModule</title>
<path fill="none" stroke="black" d="M1113.18,-104C1000.34,-104 764.52,-104 764.52,-104 764.52,-104 764.52,-180 764.52,-180 764.52,-180 763.42,-180 763.42,-180"/>
<polygon fill="black" stroke="black" points="763.49,-176.5 753.49,-180 763.49,-183.5 763.49,-176.5"/>
</g>
<!-- FilesS3Service -->
<g id="node38" class="node">
<title>FilesS3Service</title>
<ellipse fill="#fdb462" stroke="black" cx="1765" cy="-180" rx="68.93" ry="18"/>
<text text-anchor="middle" x="1765" y="-175.8" font-family="Times,serif" font-size="14.00">FilesS3Service</text>
</g>
<!-- FilesS3Service&#45;&gt;FilesS3Module -->
<g id="edge38" class="edge">
<title>FilesS3Service&#45;&gt;FilesS3Module</title>
<path fill="none" stroke="black" d="M1765,-161.81C1765,-158.46 1765,-156 1765,-156 1765,-156 1456.54,-156 1456.54,-156 1456.54,-156 1456.54,-132.19 1456.54,-132.19"/>
<polygon fill="black" stroke="black" points="1460.04,-132.19 1456.54,-122.19 1453.04,-132.19 1460.04,-132.19"/>
</g>
<!-- FilesS3PresignedService -->
<g id="node40" class="node">
<title>FilesS3PresignedService</title>
<ellipse fill="#fdb462" stroke="black" cx="2109" cy="-180" rx="107.1" ry="18"/>
<text text-anchor="middle" x="2109" y="-175.8" font-family="Times,serif" font-size="14.00">FilesS3PresignedService</text>
</g>
<!-- FilesS3PresignedService&#45;&gt;FilesS3PresignedModule -->
<g id="edge40" class="edge">
<title>FilesS3PresignedService&#45;&gt;FilesS3PresignedModule</title>
<path fill="none" stroke="black" d="M2109,-161.97C2109,-141.23 2109,-110 2109,-110 2109,-110 1653.52,-110 1653.52,-110"/>
<polygon fill="black" stroke="black" points="1653.52,-106.5 1643.52,-110 1653.52,-113.5 1653.52,-106.5"/>
</g>
<!-- PaginationService -->
<g id="node45" class="node">
<title>PaginationService</title>
<ellipse fill="#fdb462" stroke="black" cx="2067" cy="-332" rx="81.1" ry="18"/>
<text text-anchor="middle" x="2067" y="-327.8" font-family="Times,serif" font-size="14.00">PaginationService</text>
</g>
<!-- PaginationService&#45;&gt;HelperModule -->
<g id="edge45" class="edge">
<title>PaginationService&#45;&gt;HelperModule</title>
<path fill="none" stroke="black" d="M2027.61,-316.13C2027.61,-311.66 2027.61,-308 2027.61,-308 2027.61,-308 1789.54,-308 1789.54,-308 1789.54,-308 1789.54,-284.19 1789.54,-284.19"/>
<polygon fill="black" stroke="black" points="1793.04,-284.19 1789.54,-274.19 1786.04,-284.19 1793.04,-284.19"/>
</g>
<!-- PrismaService -->
<g id="node46" class="node">
<title>PrismaService</title>
<ellipse fill="#fdb462" stroke="black" cx="1901" cy="-332" rx="66.63" ry="18"/>
<text text-anchor="middle" x="1901" y="-327.8" font-family="Times,serif" font-size="14.00">PrismaService</text>
</g>
<!-- PrismaService&#45;&gt;HelperModule -->
<g id="edge46" class="edge">
<title>PrismaService&#45;&gt;HelperModule</title>
<path fill="none" stroke="black" d="M1833.94,-332C1811.31,-332 1791.68,-332 1791.68,-332 1791.68,-332 1791.68,-284.01 1791.68,-284.01"/>
<polygon fill="black" stroke="black" points="1795.18,-284.01 1791.68,-274.01 1788.18,-284.01 1795.18,-284.01"/>
</g>
<!-- HomeService -->
<g id="node47" class="node">
<title>HomeService</title>
<ellipse fill="#fdb462" stroke="black" cx="694" cy="-104" rx="63.68" ry="18"/>
<text text-anchor="middle" x="694" y="-99.8" font-family="Times,serif" font-size="14.00">HomeService</text>
</g>
<!-- HomeService&#45;&gt;HomeModule -->
<g id="edge47" class="edge">
<title>HomeService&#45;&gt;HomeModule</title>
<path fill="none" stroke="black" d="M639.65,-113.63C639.65,-113.63 639.65,-151.75 639.65,-151.75"/>
<polygon fill="black" stroke="black" points="636.15,-151.75 639.65,-161.75 643.15,-151.75 636.15,-151.75"/>
</g>
<!-- StateService -->
<g id="node49" class="node">
<title>StateService</title>
<ellipse fill="#fdb462" stroke="black" cx="3543" cy="-256" rx="59.1" ry="18"/>
<text text-anchor="middle" x="3543" y="-251.8" font-family="Times,serif" font-size="14.00">StateService</text>
</g>
<!-- StateService&#45;&gt;StateModule -->
<g id="edge49" class="edge">
<title>StateService&#45;&gt;StateModule</title>
<path fill="none" stroke="black" d="M3543,-237.81C3543,-222.82 3543,-204 3543,-204 3543,-204 1612,-204 1612,-204 1612,-204 1612,-203.42 1612,-203.42"/>
<polygon fill="black" stroke="black" points="1615.5,-208.19 1612,-198.19 1608.5,-208.19 1615.5,-208.19"/>
</g>
</g>
</svg>
